<svg width="1100" height="389" viewBox="0 0 1100 389" fill="none" xmlns="http://www.w3.org/2000/svg">
<path d="M155.062 12.3125H189V57.5625H19.3125V159.375H98.5V170.688H8V12.3125H41.9375V1H53.25V12.3125H143.75V1H155.062V12.3125ZM177.688 46.25V23.625H155.062V34.9375H143.75V23.625H53.25V34.9375H41.9375V23.625H19.3125V46.25H177.688ZM186.26 68.875L165.226 102.812H189L129.609 182H106.277L128.902 136.75H106.277L140.48 68.875H186.26ZM166.375 114.125H144.899L165.933 80.1875H147.462L124.66 125.438H147.285L125.986 168.036L166.375 114.125Z" fill="#86EFAC"/>
<path d="M1028.6 108.03L1000.2 93.8335C999.362 93.4164 998.429 93.228 997.494 93.2872C996.559 93.3464 995.656 93.6511 994.877 94.1706L980.964 103.442C973.92 99.8369 968.189 94.1068 964.583 87.0637L973.865 73.1604C974.385 72.3812 974.689 71.4786 974.749 70.5439C974.808 69.6093 974.619 68.6755 974.202 67.8369L960.005 39.4448C959.563 38.5565 958.883 37.8092 958.039 37.2871C957.196 36.7651 956.223 36.4891 955.231 36.4902C946.288 36.4902 937.712 40.0424 931.388 46.3653C925.065 52.6882 921.512 61.2639 921.512 70.2059C921.536 90.4357 929.583 109.83 943.889 124.135C958.195 138.44 977.591 146.486 997.823 146.51C1006.77 146.51 1015.34 142.958 1021.67 136.635C1027.99 130.312 1031.54 121.736 1031.54 112.794C1031.54 111.805 1031.27 110.835 1030.75 109.993C1030.23 109.151 1029.48 108.472 1028.6 108.03ZM997.823 135.863C980.415 135.842 963.725 128.917 951.416 116.609C939.106 104.3 932.181 87.6127 932.16 70.2059C932.161 64.6383 934.175 59.2588 937.831 55.0598C941.488 50.8608 946.539 48.1257 952.054 47.3591L963.288 69.8244L954.069 83.6478C953.584 84.3769 953.287 85.2141 953.203 86.0854C953.12 86.9567 953.252 87.8352 953.589 88.643C958.485 100.282 967.745 109.54 979.384 114.436C980.192 114.772 981.071 114.905 981.942 114.821C982.813 114.738 983.651 114.441 984.38 113.956L998.205 104.738L1020.67 115.97C1019.91 121.485 1017.17 126.536 1012.97 130.192C1008.77 133.848 1003.39 135.862 997.823 135.863ZM976.527 1C960.837 0.996709 945.416 5.07186 931.776 12.8256C918.136 20.5794 906.747 31.7455 898.725 45.2284C890.703 58.7113 886.324 74.0478 886.017 89.7334C885.711 105.419 889.488 120.915 896.978 134.7L886.667 165.639C885.937 167.828 885.831 170.176 886.361 172.422C886.891 174.667 888.036 176.721 889.667 178.352C891.299 179.983 893.352 181.128 895.598 181.658C897.844 182.188 900.193 182.082 902.381 181.352L933.323 171.042C945.435 177.615 958.888 181.335 972.656 181.919C986.424 182.503 1000.14 179.935 1012.77 174.413C1025.39 168.89 1036.59 160.557 1045.51 150.05C1054.42 139.543 1060.82 127.139 1064.21 113.784C1067.61 100.429 1067.91 86.4758 1065.09 72.9879C1062.27 59.5 1056.41 46.8338 1047.95 35.9552C1039.49 25.0765 1028.66 16.2726 1016.28 10.2148C1003.9 4.15705 990.307 1.00533 976.527 1ZM976.527 171.353C962.489 171.356 948.698 167.659 936.544 160.635C935.734 160.169 934.816 159.922 933.882 159.916C933.309 159.92 932.74 160.012 932.196 160.191L899.018 171.246C898.706 171.351 898.37 171.366 898.049 171.29C897.729 171.214 897.435 171.051 897.202 170.818C896.969 170.585 896.805 170.291 896.73 169.971C896.654 169.65 896.669 169.314 896.773 169.002L907.83 135.863C908.069 135.147 908.153 134.388 908.077 133.637C908 132.886 907.765 132.159 907.386 131.506C898.577 116.291 895.036 98.5936 897.313 81.1604C899.59 63.7272 907.556 47.5326 919.978 35.0891C932.399 22.6455 948.579 14.6486 966.01 12.3391C983.44 10.0295 1001.15 13.5364 1016.38 22.3157C1031.61 31.095 1043.52 44.6558 1050.26 60.8944C1057 77.133 1058.19 95.1415 1053.65 112.126C1049.11 129.111 1039.09 144.122 1025.14 154.831C1011.2 165.539 994.11 171.347 976.527 171.353Z" fill="#86EFAC"/>
<path fill-rule="evenodd" clip-rule="evenodd" d="M614.484 76.9032V158.645C614.484 164.839 612.023 170.78 607.644 175.16C603.264 179.539 597.323 182 591.129 182H474.857C468.681 182 462.757 179.554 458.38 175.197C454.003 170.84 451.53 164.926 451.502 158.75L451 41.9761C450.972 35.784 453.405 29.8342 457.762 25.4349C462.12 21.0357 468.046 18.547 474.238 18.5161H556.097" fill="#86EFAC"/>
<path d="M614.484 76.9032V158.645C614.484 164.839 612.023 170.78 607.644 175.16C603.264 179.539 597.323 182 591.129 182H474.857C468.681 182 462.757 179.554 458.38 175.197C454.003 170.84 451.53 164.926 451.502 158.75L451 41.9761C450.972 35.784 453.405 29.8342 457.762 25.4349C462.12 21.0357 468.046 18.547 474.238 18.5161H556.097" stroke="#86EFAC" stroke-linecap="round" stroke-linejoin="round"/>
<path d="M608.645 47.7097C621.544 47.7097 632 37.2534 632 24.3548C632 11.4563 621.544 1 608.645 1C595.747 1 585.291 11.4563 585.291 24.3548C585.291 37.2534 595.747 47.7097 608.645 47.7097Z" fill="#86EFAC" stroke="#86EFAC" stroke-linecap="round" stroke-linejoin="round"/>
<path d="M26.5828 276V256.14H38.6128L38.3128 258.15L32.7328 257.22C31.7528 257.22 30.6728 257.39 29.4928 257.73V265.02H36.1528V266.16H29.4928V274.92L38.7928 273.99L38.4928 276H26.5828ZM47.3585 276.39H46.9085L41.0285 262.44H43.6685L47.8085 272.94L51.7385 262.44H52.8785L47.3585 276.39ZM56.3297 268.62C56.3297 270.78 56.8097 272.34 57.7697 273.3C58.7497 274.24 59.9297 274.71 61.3097 274.71C62.7097 274.71 63.9997 274.44 65.1797 273.9V274.95C63.5397 275.89 61.9697 276.36 60.4697 276.36C58.5297 276.36 56.9597 275.77 55.7597 274.59C54.5597 273.41 53.9597 271.7 53.9597 269.46C53.9597 267.22 54.6197 265.43 55.9397 264.09C57.2797 262.75 58.8897 262.08 60.7697 262.08C62.2297 262.08 63.4497 262.66 64.4297 263.82C65.4097 264.96 65.8997 266.56 65.8997 268.62H56.3297ZM59.2397 263.49C58.5397 263.83 57.9397 264.38 57.4397 265.14C56.9397 265.88 56.6097 266.74 56.4497 267.72H63.4697C63.4097 266.88 63.2097 266.16 62.8697 265.56C62.5497 264.96 62.1597 264.52 61.6997 264.24C60.8797 263.74 60.0597 263.49 59.2397 263.49ZM72.1022 264.36C72.9422 263.56 73.6722 262.98 74.2922 262.62C74.9322 262.26 75.6822 262.08 76.5422 262.08C77.4022 262.08 78.1922 262.42 78.9122 263.1C79.6522 263.78 80.0222 264.95 80.0222 266.61V276H77.4722V266.91C77.4722 265.93 77.2922 265.2 76.9322 264.72C76.5922 264.22 75.9922 263.97 75.1322 263.97C74.2922 263.97 73.3122 264.53 72.1922 265.65V276H69.6422V266.58C69.6422 265.22 69.1322 264.13 68.1122 263.31L69.6422 262.17L72.1022 264.36ZM87.4922 273.36C87.4922 273.96 87.6122 274.41 87.8522 274.71C88.0922 275.01 88.4922 275.16 89.0522 275.16C89.6122 275.16 90.2822 275.01 91.0622 274.71V275.55C89.9022 276.09 88.8622 276.36 87.9422 276.36C87.0222 276.36 86.2922 276.11 85.7522 275.61C85.2322 275.09 84.9722 274.29 84.9722 273.21V263.52L82.5422 263.04V262.44H84.9722V261.36L87.4922 259.53V262.44H91.0622V263.52H87.4922V273.36ZM107.655 262.08C109.415 262.08 110.865 262.68 112.005 263.88C113.165 265.08 113.745 266.73 113.745 268.83C113.745 270.17 113.515 271.35 113.055 272.37C112.595 273.39 111.995 274.18 111.255 274.74C109.835 275.82 108.245 276.36 106.485 276.36C104.745 276.36 103.295 275.76 102.135 274.56C100.995 273.36 100.425 271.71 100.425 269.61C100.425 268.27 100.645 267.09 101.085 266.07C101.545 265.05 102.145 264.26 102.885 263.7C104.305 262.62 105.895 262.08 107.655 262.08ZM107.055 275.34C107.935 275.34 108.685 275 109.305 274.32C110.425 273.12 110.985 271.53 110.985 269.55C110.985 267.55 110.645 266 109.965 264.9C109.285 263.78 108.175 263.22 106.635 263.22C105.495 263.66 104.625 264.44 104.025 265.56C103.445 266.66 103.155 268 103.155 269.58C103.155 271.14 103.475 272.49 104.115 273.63C104.755 274.77 105.735 275.34 107.055 275.34ZM121.455 276.36C119.715 276.36 118.265 275.77 117.105 274.59C115.965 273.39 115.395 271.7 115.395 269.52C115.395 267.34 116.005 265.56 117.225 264.18C118.465 262.78 120.035 262.08 121.935 262.08C122.995 262.08 124.185 262.34 125.505 262.86L125.205 264.84C123.445 263.92 121.935 263.46 120.675 263.46C119.635 263.98 118.885 264.82 118.425 265.98C117.965 267.14 117.735 268.28 117.735 269.4C117.735 270.92 118.175 272.19 119.055 273.21C119.955 274.21 121.025 274.71 122.265 274.71C123.505 274.71 124.645 274.44 125.685 273.9V274.95C124.245 275.89 122.835 276.36 121.455 276.36ZM133.643 276.36C131.903 276.36 130.453 275.77 129.293 274.59C128.153 273.39 127.583 271.7 127.583 269.52C127.583 267.34 128.193 265.56 129.413 264.18C130.653 262.78 132.223 262.08 134.123 262.08C135.183 262.08 136.373 262.34 137.693 262.86L137.393 264.84C135.633 263.92 134.123 263.46 132.863 263.46C131.823 263.98 131.073 264.82 130.613 265.98C130.153 267.14 129.923 268.28 129.923 269.4C129.923 270.92 130.363 272.19 131.243 273.21C132.143 274.21 133.213 274.71 134.453 274.71C135.693 274.71 136.833 274.44 137.873 273.9V274.95C136.433 275.89 135.023 276.36 133.643 276.36ZM150.9 271.98C150.9 273.36 151.42 274.45 152.46 275.25L150.9 276.36L148.47 274.17C147.65 274.95 146.92 275.51 146.28 275.85C145.64 276.19 144.88 276.36 144 276.36C143.14 276.36 142.34 276.03 141.6 275.37C140.88 274.69 140.52 273.53 140.52 271.89V262.44H143.07V272.04C143.07 273 143.24 273.73 143.58 274.23C143.94 274.71 144.55 274.95 145.41 274.95C146.29 274.95 147.27 274.31 148.35 273.03V262.44H150.9V271.98ZM157.844 276H155.324V262.44H157.064L157.754 264.96C158.154 264.26 158.784 263.6 159.644 262.98C160.524 262.36 161.424 261.98 162.344 261.84L162.644 263.91C161.904 263.91 161.064 264.14 160.124 264.6C159.204 265.06 158.444 265.57 157.844 266.13V276ZM168.025 263.34C167.505 263.34 167.075 263.54 166.735 263.94C166.415 264.32 166.255 264.76 166.255 265.26C166.255 265.74 166.485 266.21 166.945 266.67C167.425 267.11 167.995 267.51 168.655 267.87C169.335 268.21 170.005 268.57 170.665 268.95C171.325 269.33 171.885 269.82 172.345 270.42C172.825 271.02 173.065 271.69 173.065 272.43C173.065 273.55 172.615 274.49 171.715 275.25C170.815 275.99 169.585 276.36 168.025 276.36C166.485 276.36 165.075 276 163.795 275.28V274.14C165.155 274.82 166.385 275.16 167.485 275.16C168.585 275.16 169.385 274.94 169.885 274.5C170.385 274.06 170.635 273.56 170.635 273C170.635 272.42 170.405 271.91 169.945 271.47C169.505 271.01 168.955 270.61 168.295 270.27C167.655 269.93 167.015 269.57 166.375 269.19C165.735 268.81 165.185 268.32 164.725 267.72C164.285 267.12 164.065 266.4 164.065 265.56C164.065 264.7 164.405 263.91 165.085 263.19C165.785 262.45 166.855 262.08 168.295 262.08C169.735 262.08 171.115 262.34 172.435 262.86L172.135 264.84C170.655 264.04 169.285 263.54 168.025 263.34ZM3.30234 303.62C3.30234 305.78 3.78234 307.34 4.74234 308.3C5.72234 309.24 6.90234 309.71 8.28234 309.71C9.68234 309.71 10.9723 309.44 12.1523 308.9V309.95C10.5123 310.89 8.94234 311.36 7.44234 311.36C5.50234 311.36 3.93234 310.77 2.73234 309.59C1.53234 308.41 0.932344 306.7 0.932344 304.46C0.932344 302.22 1.59234 300.43 2.91234 299.09C4.25234 297.75 5.86234 297.08 7.74234 297.08C9.20234 297.08 10.4223 297.66 11.4023 298.82C12.3823 299.96 12.8723 301.56 12.8723 303.62H3.30234ZM6.21234 298.49C5.51234 298.83 4.91234 299.38 4.41234 300.14C3.91234 300.88 3.58234 301.74 3.42234 302.72H10.4423C10.3823 301.88 10.1823 301.16 9.84234 300.56C9.52234 299.96 9.13234 299.52 8.67234 299.24C7.85234 298.74 7.03234 298.49 6.21234 298.49ZM16.7948 310.85C16.4748 310.53 16.3148 310.14 16.3148 309.68C16.3148 309.22 16.4748 308.83 16.7948 308.51C17.1148 308.17 17.5048 308 17.9648 308C18.4248 308 18.8148 308.17 19.1348 308.51C19.4748 308.83 19.6448 309.22 19.6448 309.68C19.6448 310.14 19.4748 310.53 19.1348 310.85C18.8148 311.17 18.4248 311.33 17.9648 311.33C17.5048 311.33 17.1148 311.17 16.7948 310.85ZM25.6748 308.3C25.6748 308.68 25.9548 308.94 26.5148 309.08C27.0948 309.22 28.1948 309.29 29.8148 309.29C31.4348 309.29 32.7348 309.47 33.7148 309.83C34.6948 310.19 35.1848 310.87 35.1848 311.87C35.1848 313.35 34.4548 314.68 32.9948 315.86C31.5548 317.06 29.7848 317.66 27.6848 317.66C26.1648 317.66 24.9148 317.37 23.9348 316.79C22.9748 316.23 22.4948 315.42 22.4948 314.36C22.4948 312.86 23.3148 311.75 24.9548 311.03C24.0348 310.69 23.5748 310.06 23.5748 309.14C23.5748 308.2 24.2948 307.18 25.7348 306.08C24.2348 305.3 23.4848 304.03 23.4848 302.27C23.4848 300.49 24.0348 299.18 25.1348 298.34C26.2548 297.5 27.5048 297.08 28.8848 297.08C29.8648 297.08 30.8048 297.35 31.7048 297.89L34.3448 297.14L34.9448 298.43L33.0848 299.36C33.4648 300.02 33.6548 300.79 33.6548 301.67C33.6548 302.55 33.4748 303.33 33.1148 304.01C32.7748 304.67 32.3248 305.18 31.7648 305.54C30.6448 306.26 29.4348 306.62 28.1348 306.62C27.9348 306.62 27.6548 306.6 27.2948 306.56C26.9548 306.66 26.5948 306.88 26.2148 307.22C25.8548 307.56 25.6748 307.92 25.6748 308.3ZM31.2848 301.94C31.2848 300.9 31.0048 300 30.4448 299.24C29.9048 298.46 29.2248 298.07 28.4048 298.07C27.6048 298.07 26.9648 298.42 26.4848 299.12C26.0048 299.82 25.7648 300.73 25.7648 301.85C25.7648 302.95 26.0348 303.87 26.5748 304.61C27.1148 305.33 27.7648 305.69 28.5248 305.69C30.3648 305.69 31.2848 304.44 31.2848 301.94ZM28.1648 316.28C29.8248 316.28 31.2348 315.82 32.3948 314.9C33.5548 313.98 34.1348 313.06 34.1348 312.14C33.1148 311.72 31.6848 311.51 29.8448 311.51C28.0248 311.51 26.7648 311.45 26.0648 311.33C25.1848 312.07 24.7448 312.86 24.7448 313.7C24.7448 315.42 25.8848 316.28 28.1648 316.28ZM38.4019 310.85C38.0819 310.53 37.9219 310.14 37.9219 309.68C37.9219 309.22 38.0819 308.83 38.4019 308.51C38.7219 308.17 39.1119 308 39.5719 308C40.0319 308 40.4219 308.17 40.7419 308.51C41.0819 308.83 41.2519 309.22 41.2519 309.68C41.2519 310.14 41.0819 310.53 40.7419 310.85C40.4219 311.17 40.0319 311.33 39.5719 311.33C39.1119 311.33 38.7219 311.17 38.4019 310.85ZM38.4019 300.08C38.0819 299.76 37.9219 299.37 37.9219 298.91C37.9219 298.45 38.0819 298.06 38.4019 297.74C38.7219 297.4 39.1119 297.23 39.5719 297.23C40.0319 297.23 40.4219 297.4 40.7419 297.74C41.0819 298.06 41.2519 298.45 41.2519 298.91C41.2519 299.37 41.0819 299.76 40.7419 300.08C40.4219 300.4 40.0319 300.56 39.5719 300.56C39.1119 300.56 38.7219 300.4 38.4019 300.08ZM55.05 299.36C55.89 298.56 56.62 297.98 57.24 297.62C57.88 297.26 58.53 297.08 59.19 297.08C59.87 297.08 60.47 297.19 60.99 297.41C61.53 297.63 62.08 297.99 62.64 298.49C63.2 298.97 63.65 299.73 63.99 300.77C64.35 301.79 64.53 302.92 64.53 304.16C64.53 305.38 64.33 306.52 63.93 307.58C63.53 308.64 62.9 309.56 62.04 310.34C61.18 311.12 60.14 311.51 58.92 311.51C57.72 311.51 56.43 311.04 55.05 310.1V317.36H52.5V301.49C52.5 300.11 51.98 299.02 50.94 298.22L52.5 297.08L55.05 299.36ZM55.05 301.19V309.23C57.79 310.53 59.73 310.32 60.87 308.6C61.49 307.62 61.8 306.33 61.8 304.73C61.8 303.11 61.54 301.73 61.02 300.59C60.52 299.43 59.89 298.73 59.13 298.49C58.43 298.57 57.74 298.82 57.06 299.24C56.4 299.66 55.9 300.06 55.56 300.44C55.22 300.8 55.05 301.05 55.05 301.19ZM73.8 307.82V304.73C72.36 304.83 71.18 305.15 70.26 305.69C69.34 306.23 68.88 306.81 68.88 307.43C68.88 308.05 69.04 308.59 69.36 309.05C69.68 309.49 70.09 309.8 70.59 309.98C71.25 309.86 71.95 309.53 72.69 308.99C73.43 308.45 73.8 308.06 73.8 307.82ZM76.26 307.01C76.26 308.43 76.78 309.51 77.82 310.25L76.26 311.39L73.83 309.2C72.25 310.64 70.79 311.36 69.45 311.36C68.57 311.36 67.81 311.08 67.17 310.52C66.55 309.96 66.24 309.26 66.24 308.42C66.24 307.56 66.49 306.85 66.99 306.29C67.51 305.73 68.19 305.3 69.03 305C70.47 304.46 72.06 304.12 73.8 303.98V301.16C73.8 299.5 72.84 298.67 70.92 298.67C69.82 298.67 68.52 298.91 67.02 299.39L66.75 298.64C67.15 298.32 67.84 297.98 68.82 297.62C69.82 297.26 70.77 297.08 71.67 297.08C72.57 297.08 73.32 297.2 73.92 297.44C74.54 297.68 74.99 297.95 75.27 298.25C75.57 298.55 75.8 298.96 75.96 299.48C76.12 300 76.21 300.41 76.23 300.71C76.25 301.01 76.26 301.41 76.26 301.91V307.01ZM80.8301 311V297.44H83.3201V311H80.8301ZM80.5301 293.27C80.5301 292.83 80.6701 292.46 80.9501 292.16C81.2501 291.86 81.6101 291.71 82.0301 291.71C82.4701 291.71 82.8401 291.86 83.1401 292.16C83.4601 292.46 83.6201 292.82 83.6201 293.24C83.6201 293.66 83.4601 294.03 83.1401 294.35C82.8401 294.67 82.4801 294.83 82.0601 294.83C81.6401 294.83 81.2801 294.68 80.9801 294.38C80.6801 294.06 80.5301 293.69 80.5301 293.27ZM98.302 306.98C98.302 308.36 98.812 309.46 99.832 310.28L98.302 311.39L95.842 309.2C95.042 309.96 94.322 310.51 93.682 310.85C93.042 311.19 92.382 311.36 91.702 311.36C91.022 311.36 90.422 311.26 89.902 311.06C89.382 310.86 88.832 310.53 88.252 310.07C87.692 309.59 87.232 308.85 86.872 307.85C86.532 306.83 86.362 305.52 86.362 303.92C86.362 302.32 86.832 300.79 87.772 299.33C88.732 297.85 90.042 297.11 91.702 297.11C92.942 297.11 94.292 297.57 95.752 298.49V290.51H98.302V306.98ZM95.752 307.97V299.6C94.692 298.9 93.722 298.55 92.842 298.55C91.682 298.55 90.752 299.1 90.052 300.2C89.352 301.28 89.002 302.64 89.002 304.28C89.002 305.92 89.252 307.24 89.752 308.24C90.272 309.22 90.912 309.81 91.672 310.01C92.372 309.95 93.052 309.78 93.712 309.5C94.392 309.22 94.902 308.94 95.242 308.66C95.582 308.36 95.752 308.13 95.752 307.97ZM110.332 311V297.44H112.822V311H110.332ZM110.032 293.27C110.032 292.83 110.172 292.46 110.452 292.16C110.752 291.86 111.112 291.71 111.532 291.71C111.972 291.71 112.342 291.86 112.642 292.16C112.962 292.46 113.122 292.82 113.122 293.24C113.122 293.66 112.962 294.03 112.642 294.35C112.342 294.67 111.982 294.83 111.562 294.83C111.142 294.83 110.782 294.68 110.482 294.38C110.182 294.06 110.032 293.69 110.032 293.27ZM119.944 299.36C120.784 298.56 121.514 297.98 122.134 297.62C122.774 297.26 123.524 297.08 124.384 297.08C125.244 297.08 126.034 297.42 126.754 298.1C127.494 298.78 127.864 299.95 127.864 301.61V311H125.314V301.91C125.314 300.93 125.134 300.2 124.774 299.72C124.434 299.22 123.834 298.97 122.974 298.97C122.134 298.97 121.154 299.53 120.034 300.65V311H117.484V301.58C117.484 300.22 116.974 299.13 115.954 298.31L117.484 297.17L119.944 299.36ZM136.714 311.39H136.264L130.384 297.44H133.024L137.164 307.94L141.094 297.44H142.234L136.714 311.39ZM150.575 297.08C152.335 297.08 153.785 297.68 154.925 298.88C156.085 300.08 156.665 301.73 156.665 303.83C156.665 305.17 156.435 306.35 155.975 307.37C155.515 308.39 154.915 309.18 154.175 309.74C152.755 310.82 151.165 311.36 149.405 311.36C147.665 311.36 146.215 310.76 145.055 309.56C143.915 308.36 143.345 306.71 143.345 304.61C143.345 303.27 143.565 302.09 144.005 301.07C144.465 300.05 145.065 299.26 145.805 298.7C147.225 297.62 148.815 297.08 150.575 297.08ZM149.975 310.34C150.855 310.34 151.605 310 152.225 309.32C153.345 308.12 153.905 306.53 153.905 304.55C153.905 302.55 153.565 301 152.885 299.9C152.205 298.78 151.095 298.22 149.555 298.22C148.415 298.66 147.545 299.44 146.945 300.56C146.365 301.66 146.075 303 146.075 304.58C146.075 306.14 146.395 307.49 147.035 308.63C147.675 309.77 148.655 310.34 149.975 310.34ZM159.785 311V297.44H162.275V311H159.785ZM159.485 293.27C159.485 292.83 159.625 292.46 159.905 292.16C160.205 291.86 160.565 291.71 160.985 291.71C161.425 291.71 161.795 291.86 162.095 292.16C162.415 292.46 162.575 292.82 162.575 293.24C162.575 293.66 162.415 294.03 162.095 294.35C161.795 294.67 161.435 294.83 161.015 294.83C160.595 294.83 160.235 294.68 159.935 294.38C159.635 294.06 159.485 293.69 159.485 293.27ZM171.377 311.36C169.637 311.36 168.187 310.77 167.027 309.59C165.887 308.39 165.317 306.7 165.317 304.52C165.317 302.34 165.927 300.56 167.147 299.18C168.387 297.78 169.957 297.08 171.857 297.08C172.917 297.08 174.107 297.34 175.427 297.86L175.127 299.84C173.367 298.92 171.857 298.46 170.597 298.46C169.557 298.98 168.807 299.82 168.347 300.98C167.887 302.14 167.657 303.28 167.657 304.4C167.657 305.92 168.097 307.19 168.977 308.21C169.877 309.21 170.947 309.71 172.187 309.71C173.427 309.71 174.567 309.44 175.607 308.9V309.95C174.167 310.89 172.757 311.36 171.377 311.36ZM179.875 303.62C179.875 305.78 180.355 307.34 181.315 308.3C182.295 309.24 183.475 309.71 184.855 309.71C186.255 309.71 187.545 309.44 188.725 308.9V309.95C187.085 310.89 185.515 311.36 184.015 311.36C182.075 311.36 180.505 310.77 179.305 309.59C178.105 308.41 177.505 306.7 177.505 304.46C177.505 302.22 178.165 300.43 179.485 299.09C180.825 297.75 182.435 297.08 184.315 297.08C185.775 297.08 186.995 297.66 187.975 298.82C188.955 299.96 189.445 301.56 189.445 303.62H179.875ZM182.785 298.49C182.085 298.83 181.485 299.38 180.985 300.14C180.485 300.88 180.155 301.74 179.995 302.72H187.015C186.955 301.88 186.755 301.16 186.415 300.56C186.095 299.96 185.705 299.52 185.245 299.24C184.425 298.74 183.605 298.49 182.785 298.49ZM196.037 310.16C196.037 312.32 194.917 314.02 192.677 315.26L192.317 314.69C193.657 313.63 194.327 312.44 194.327 311.12C193.867 311.12 193.437 310.97 193.037 310.67C192.657 310.37 192.467 309.97 192.467 309.47C192.747 309.05 193.197 308.68 193.817 308.36C194.437 308.02 195.037 307.82 195.617 307.76C195.897 308.58 196.037 309.38 196.037 310.16ZM10.3883 334.36C11.2283 333.56 11.9583 332.98 12.5783 332.62C13.2183 332.26 13.9683 332.08 14.8283 332.08C15.6883 332.08 16.4783 332.42 17.1983 333.1C17.9383 333.78 18.3083 334.95 18.3083 336.61V346H15.7583V336.91C15.7583 335.93 15.5783 335.2 15.2183 334.72C14.8783 334.22 14.2783 333.97 13.4183 333.97C12.5783 333.97 11.5983 334.53 10.4783 335.65V346H7.92832V336.58C7.92832 335.22 7.41832 334.13 6.39832 333.31L7.92832 332.17L10.3883 334.36ZM23.6783 338.62C23.6783 340.78 24.1583 342.34 25.1183 343.3C26.0983 344.24 27.2783 344.71 28.6583 344.71C30.0583 344.71 31.3483 344.44 32.5283 343.9V344.95C30.8883 345.89 29.3183 346.36 27.8183 346.36C25.8783 346.36 24.3083 345.77 23.1083 344.59C21.9083 343.41 21.3083 341.7 21.3083 339.46C21.3083 337.22 21.9683 335.43 23.2883 334.09C24.6283 332.75 26.2383 332.08 28.1183 332.08C29.5783 332.08 30.7983 332.66 31.7783 333.82C32.7583 334.96 33.2483 336.56 33.2483 338.62H23.6783ZM26.5883 333.49C25.8883 333.83 25.2883 334.38 24.7883 335.14C24.2883 335.88 23.9583 336.74 23.7983 337.72H30.8183C30.7583 336.88 30.5583 336.16 30.2183 335.56C29.8983 334.96 29.5083 334.52 29.0483 334.24C28.2283 333.74 27.4083 333.49 26.5883 333.49ZM37.6508 332.44L41.6408 343.03L44.3408 335.65L42.9908 332.44H45.7508L49.7408 343.03L53.6408 332.44H54.8108L49.3208 346.39H48.8408L44.8808 337.03L41.1908 346.39H40.7408L34.8908 332.44H37.6508ZM69.4386 346.36C67.6986 346.36 66.2486 345.77 65.0886 344.59C63.9486 343.39 63.3786 341.7 63.3786 339.52C63.3786 337.34 63.9886 335.56 65.2086 334.18C66.4486 332.78 68.0186 332.08 69.9186 332.08C70.9786 332.08 72.1686 332.34 73.4886 332.86L73.1886 334.84C71.4286 333.92 69.9186 333.46 68.6586 333.46C67.6186 333.98 66.8686 334.82 66.4086 335.98C65.9486 337.14 65.7186 338.28 65.7186 339.4C65.7186 340.92 66.1586 342.19 67.0386 343.21C67.9386 344.21 69.0086 344.71 70.2486 344.71C71.4886 344.71 72.6286 344.44 73.6686 343.9V344.95C72.2286 345.89 70.8186 346.36 69.4386 346.36ZM86.6961 341.98C86.6961 343.36 87.2161 344.45 88.2561 345.25L86.6961 346.36L84.2661 344.17C83.4461 344.95 82.7161 345.51 82.0761 345.85C81.4361 346.19 80.6761 346.36 79.7961 346.36C78.9361 346.36 78.1361 346.03 77.3961 345.37C76.6761 344.69 76.3161 343.53 76.3161 341.89V332.44H78.8661V342.04C78.8661 343 79.0361 343.73 79.3761 344.23C79.7361 344.71 80.3461 344.95 81.2061 344.95C82.0861 344.95 83.0661 344.31 84.1461 343.03V332.44H86.6961V341.98ZM94.2702 333.34C93.7502 333.34 93.3202 333.54 92.9802 333.94C92.6602 334.32 92.5002 334.76 92.5002 335.26C92.5002 335.74 92.7302 336.21 93.1902 336.67C93.6702 337.11 94.2402 337.51 94.9002 337.87C95.5802 338.21 96.2502 338.57 96.9102 338.95C97.5702 339.33 98.1302 339.82 98.5902 340.42C99.0702 341.02 99.3102 341.69 99.3102 342.43C99.3102 343.55 98.8602 344.49 97.9602 345.25C97.0602 345.99 95.8302 346.36 94.2702 346.36C92.7302 346.36 91.3202 346 90.0402 345.28V344.14C91.4002 344.82 92.6302 345.16 93.7302 345.16C94.8302 345.16 95.6302 344.94 96.1302 344.5C96.6302 344.06 96.8802 343.56 96.8802 343C96.8802 342.42 96.6502 341.91 96.1902 341.47C95.7502 341.01 95.2002 340.61 94.5402 340.27C93.9002 339.93 93.2602 339.57 92.6202 339.19C91.9802 338.81 91.4302 338.32 90.9702 337.72C90.5302 337.12 90.3102 336.4 90.3102 335.56C90.3102 334.7 90.6502 333.91 91.3302 333.19C92.0302 332.45 93.1002 332.08 94.5402 332.08C95.9802 332.08 97.3602 332.34 98.6802 332.86L98.3802 334.84C96.9002 334.04 95.5302 333.54 94.2702 333.34ZM105.612 343.36C105.612 343.96 105.732 344.41 105.972 344.71C106.212 345.01 106.612 345.16 107.172 345.16C107.732 345.16 108.402 345.01 109.182 344.71V345.55C108.022 346.09 106.982 346.36 106.062 346.36C105.142 346.36 104.412 346.11 103.872 345.61C103.352 345.09 103.092 344.29 103.092 343.21V333.52L100.662 333.04V332.44H103.092V331.36L105.612 329.53V332.44H109.182V333.52H105.612V343.36ZM118.275 332.08C120.035 332.08 121.485 332.68 122.625 333.88C123.785 335.08 124.365 336.73 124.365 338.83C124.365 340.17 124.135 341.35 123.675 342.37C123.215 343.39 122.615 344.18 121.875 344.74C120.455 345.82 118.865 346.36 117.105 346.36C115.365 346.36 113.915 345.76 112.755 344.56C111.615 343.36 111.045 341.71 111.045 339.61C111.045 338.27 111.265 337.09 111.705 336.07C112.165 335.05 112.765 334.26 113.505 333.7C114.925 332.62 116.515 332.08 118.275 332.08ZM117.675 345.34C118.555 345.34 119.305 345 119.925 344.32C121.045 343.12 121.605 341.53 121.605 339.55C121.605 337.55 121.265 336 120.585 334.9C119.905 333.78 118.795 333.22 117.255 333.22C116.115 333.66 115.245 334.44 114.645 335.56C114.065 336.66 113.775 338 113.775 339.58C113.775 341.14 114.095 342.49 114.735 343.63C115.375 344.77 116.355 345.34 117.675 345.34ZM142.875 332.08C145.235 332.08 146.415 333.87 146.415 337.45V346H143.895V337.21C143.895 335.53 143.575 334.51 142.935 334.15C142.615 333.97 142.165 333.88 141.585 333.88C141.025 333.88 140.415 334.06 139.755 334.42C139.115 334.76 138.645 335.15 138.345 335.59V346H135.795V337.06C135.795 336 135.635 335.21 135.315 334.69C134.995 334.15 134.525 333.88 133.905 333.88C133.285 333.88 132.685 334.02 132.105 334.3C131.545 334.58 131.095 334.86 130.755 335.14C130.415 335.42 130.245 335.59 130.245 335.65V346H127.725V336.58C127.725 335.22 127.215 334.13 126.195 333.31L127.725 332.17L130.125 334.36C131.065 333.58 131.885 333.01 132.585 332.65C133.285 332.27 134.015 332.08 134.775 332.08C136.515 332.08 137.595 332.89 138.015 334.51C138.715 333.71 139.515 333.11 140.415 332.71C141.315 332.29 142.135 332.08 142.875 332.08ZM151.735 338.62C151.735 340.78 152.215 342.34 153.175 343.3C154.155 344.24 155.335 344.71 156.715 344.71C158.115 344.71 159.405 344.44 160.585 343.9V344.95C158.945 345.89 157.375 346.36 155.875 346.36C153.935 346.36 152.365 345.77 151.165 344.59C149.965 343.41 149.365 341.7 149.365 339.46C149.365 337.22 150.025 335.43 151.345 334.09C152.685 332.75 154.295 332.08 156.175 332.08C157.635 332.08 158.855 332.66 159.835 333.82C160.815 334.96 161.305 336.56 161.305 338.62H151.735ZM154.645 333.49C153.945 333.83 153.345 334.38 152.845 335.14C152.345 335.88 152.015 336.74 151.855 337.72H158.875C158.815 336.88 158.615 336.16 158.275 335.56C157.955 334.96 157.565 334.52 157.105 334.24C156.285 333.74 155.465 333.49 154.645 333.49ZM167.087 346H164.567V332.44H166.307L166.997 334.96C167.397 334.26 168.027 333.6 168.887 332.98C169.767 332.36 170.667 331.98 171.587 331.84L171.887 333.91C171.147 333.91 170.307 334.14 169.367 334.6C168.447 335.06 167.687 335.57 167.087 336.13V346ZM172.552 345.85C172.232 345.53 172.072 345.14 172.072 344.68C172.072 344.22 172.232 343.83 172.552 343.51C172.872 343.17 173.262 343 173.722 343C174.182 343 174.572 343.17 174.892 343.51C175.232 343.83 175.402 344.22 175.402 344.68C175.402 345.14 175.232 345.53 174.892 345.85C174.572 346.17 174.182 346.33 173.722 346.33C173.262 346.33 172.872 346.17 172.552 345.85ZM180.052 345.85C179.732 345.53 179.572 345.14 179.572 344.68C179.572 344.22 179.732 343.83 180.052 343.51C180.372 343.17 180.762 343 181.222 343C181.682 343 182.072 343.17 182.392 343.51C182.732 343.83 182.902 344.22 182.902 344.68C182.902 345.14 182.732 345.53 182.392 345.85C182.072 346.17 181.682 346.33 181.222 346.33C180.762 346.33 180.372 346.17 180.052 345.85ZM187.552 345.85C187.232 345.53 187.072 345.14 187.072 344.68C187.072 344.22 187.232 343.83 187.552 343.51C187.872 343.17 188.262 343 188.722 343C189.182 343 189.572 343.17 189.892 343.51C190.232 343.83 190.402 344.22 190.402 344.68C190.402 345.14 190.232 345.53 189.892 345.85C189.572 346.17 189.182 346.33 188.722 346.33C188.262 346.33 187.872 346.17 187.552 345.85Z" fill="black"/>
<path d="M456.295 256.14H457.795L450.355 276.45H449.875L445.285 264.15L440.785 276.45H440.305L432.715 256.14H435.985L441.265 272.4L444.625 262.38L442.285 256.14H445.555L450.835 272.4L456.295 256.14ZM460.672 268.62C460.672 270.78 461.152 272.34 462.112 273.3C463.092 274.24 464.272 274.71 465.652 274.71C467.052 274.71 468.342 274.44 469.522 273.9V274.95C467.882 275.89 466.312 276.36 464.812 276.36C462.872 276.36 461.302 275.77 460.102 274.59C458.902 273.41 458.302 271.7 458.302 269.46C458.302 267.22 458.962 265.43 460.282 264.09C461.622 262.75 463.232 262.08 465.112 262.08C466.572 262.08 467.792 262.66 468.772 263.82C469.752 264.96 470.242 266.56 470.242 268.62H460.672ZM463.582 263.49C462.882 263.83 462.282 264.38 461.782 265.14C461.282 265.88 460.952 266.74 460.792 267.72H467.812C467.752 266.88 467.552 266.16 467.212 265.56C466.892 264.96 466.502 264.52 466.042 264.24C465.222 263.74 464.402 263.49 463.582 263.49ZM476.175 264.33C477.455 262.87 478.855 262.14 480.375 262.14C481.915 262.14 483.165 262.75 484.125 263.97C485.105 265.19 485.595 266.9 485.595 269.1C485.595 271.28 484.865 273.04 483.405 274.38C481.965 275.72 480.205 276.39 478.125 276.39C476.565 276.39 475.075 276 473.655 275.22V255.51H476.175V264.33ZM476.175 265.74V274.32C477.195 274.86 478.255 275.13 479.355 275.13C480.455 275.13 481.335 274.59 481.995 273.51C482.675 272.43 483.015 271.09 483.015 269.49C483.015 267.89 482.685 266.61 482.025 265.65C481.365 264.69 480.535 264.05 479.535 263.73C478.995 263.77 478.445 263.94 477.885 264.24C477.345 264.54 476.925 264.84 476.625 265.14C476.325 265.42 476.175 265.62 476.175 265.74ZM496.005 262.14C496.925 262.14 497.745 262.48 498.465 263.16C499.185 263.84 499.545 265.01 499.545 266.67V276H497.025V266.97C497.025 265.99 496.845 265.26 496.485 264.78C496.145 264.28 495.475 264.03 494.475 264.03C493.495 264.03 492.465 264.56 491.385 265.62V276H488.865V255.51H491.295V264.36C492.875 262.88 494.445 262.14 496.005 262.14ZM509.713 262.08C511.473 262.08 512.923 262.68 514.063 263.88C515.223 265.08 515.803 266.73 515.803 268.83C515.803 270.17 515.573 271.35 515.113 272.37C514.653 273.39 514.053 274.18 513.313 274.74C511.893 275.82 510.303 276.36 508.543 276.36C506.803 276.36 505.353 275.76 504.193 274.56C503.053 273.36 502.483 271.71 502.483 269.61C502.483 268.27 502.703 267.09 503.143 266.07C503.603 265.05 504.203 264.26 504.943 263.7C506.363 262.62 507.953 262.08 509.713 262.08ZM509.113 275.34C509.993 275.34 510.743 275 511.363 274.32C512.483 273.12 513.043 271.53 513.043 269.55C513.043 267.55 512.703 266 512.023 264.9C511.343 263.78 510.233 263.22 508.693 263.22C507.553 263.66 506.683 264.44 506.083 265.56C505.503 266.66 505.213 268 505.213 269.58C505.213 271.14 505.533 272.49 506.173 273.63C506.813 274.77 507.793 275.34 509.113 275.34ZM524.713 262.08C526.473 262.08 527.923 262.68 529.063 263.88C530.223 265.08 530.803 266.73 530.803 268.83C530.803 270.17 530.573 271.35 530.113 272.37C529.653 273.39 529.053 274.18 528.313 274.74C526.893 275.82 525.303 276.36 523.543 276.36C521.803 276.36 520.353 275.76 519.193 274.56C518.053 273.36 517.483 271.71 517.483 269.61C517.483 268.27 517.703 267.09 518.143 266.07C518.603 265.05 519.203 264.26 519.943 263.7C521.363 262.62 522.953 262.08 524.713 262.08ZM524.113 275.34C524.993 275.34 525.743 275 526.363 274.32C527.483 273.12 528.043 271.53 528.043 269.55C528.043 267.55 527.703 266 527.023 264.9C526.343 263.78 525.233 263.22 523.693 263.22C522.553 263.66 521.683 264.44 521.083 265.56C520.503 266.66 520.213 268 520.213 269.58C520.213 271.14 520.533 272.49 521.173 273.63C521.813 274.77 522.793 275.34 524.113 275.34ZM536.443 276H533.923V255.51H536.443V268.2L543.373 262.44H545.353L538.303 267.78L545.803 276L542.803 276.39L536.443 268.47V276ZM558.768 264.36C559.608 263.56 560.338 262.98 560.958 262.62C561.598 262.26 562.248 262.08 562.908 262.08C563.588 262.08 564.188 262.19 564.708 262.41C565.248 262.63 565.798 262.99 566.358 263.49C566.918 263.97 567.368 264.73 567.708 265.77C568.068 266.79 568.248 267.92 568.248 269.16C568.248 270.38 568.048 271.52 567.648 272.58C567.248 273.64 566.618 274.56 565.758 275.34C564.898 276.12 563.858 276.51 562.638 276.51C561.438 276.51 560.148 276.04 558.768 275.1V282.36H556.218V266.49C556.218 265.11 555.698 264.02 554.658 263.22L556.218 262.08L558.768 264.36ZM558.768 266.19V274.23C561.508 275.53 563.448 275.32 564.588 273.6C565.208 272.62 565.518 271.33 565.518 269.73C565.518 268.11 565.258 266.73 564.738 265.59C564.238 264.43 563.608 263.73 562.848 263.49C562.148 263.57 561.458 263.82 560.778 264.24C560.118 264.66 559.618 265.06 559.278 265.44C558.938 265.8 558.768 266.05 558.768 266.19ZM573.408 276H570.888V262.44H572.628L573.318 264.96C573.718 264.26 574.348 263.6 575.208 262.98C576.088 262.36 576.988 261.98 577.908 261.84L578.208 263.91C577.468 263.91 576.628 264.14 575.688 264.6C574.768 265.06 574.008 265.57 573.408 266.13V276ZM586.559 262.08C588.319 262.08 589.769 262.68 590.909 263.88C592.069 265.08 592.649 266.73 592.649 268.83C592.649 270.17 592.419 271.35 591.959 272.37C591.499 273.39 590.899 274.18 590.159 274.74C588.739 275.82 587.149 276.36 585.389 276.36C583.649 276.36 582.199 275.76 581.039 274.56C579.899 273.36 579.329 271.71 579.329 269.61C579.329 268.27 579.549 267.09 579.989 266.07C580.449 265.05 581.049 264.26 581.789 263.7C583.209 262.62 584.799 262.08 586.559 262.08ZM585.959 275.34C586.839 275.34 587.589 275 588.209 274.32C589.329 273.12 589.889 271.53 589.889 269.55C589.889 267.55 589.549 266 588.869 264.9C588.189 263.78 587.079 263.22 585.539 263.22C584.399 263.66 583.529 264.44 582.929 265.56C582.349 266.66 582.059 268 582.059 269.58C582.059 271.14 582.379 272.49 583.019 273.63C583.659 274.77 584.639 275.34 585.959 275.34ZM600.149 276.39H599.699L593.819 262.44H596.459L600.599 272.94L604.529 262.44H605.669L600.149 276.39ZM608.22 276V262.44H610.71V276H608.22ZM607.92 258.27C607.92 257.83 608.06 257.46 608.34 257.16C608.64 256.86 609 256.71 609.42 256.71C609.86 256.71 610.23 256.86 610.53 257.16C610.85 257.46 611.01 257.82 611.01 258.24C611.01 258.66 610.85 259.03 610.53 259.35C610.23 259.67 609.87 259.83 609.45 259.83C609.03 259.83 608.67 259.68 608.37 259.38C608.07 259.06 607.92 258.69 607.92 258.27ZM625.692 271.98C625.692 273.36 626.202 274.46 627.222 275.28L625.692 276.39L623.232 274.2C622.432 274.96 621.712 275.51 621.072 275.85C620.432 276.19 619.772 276.36 619.092 276.36C618.412 276.36 617.812 276.26 617.292 276.06C616.772 275.86 616.222 275.53 615.642 275.07C615.082 274.59 614.622 273.85 614.262 272.85C613.922 271.83 613.752 270.52 613.752 268.92C613.752 267.32 614.222 265.79 615.162 264.33C616.122 262.85 617.432 262.11 619.092 262.11C620.332 262.11 621.682 262.57 623.142 263.49V255.51H625.692V271.98ZM623.142 272.97V264.6C622.082 263.9 621.112 263.55 620.232 263.55C619.072 263.55 618.142 264.1 617.442 265.2C616.742 266.28 616.392 267.64 616.392 269.28C616.392 270.92 616.642 272.24 617.142 273.24C617.662 274.22 618.302 274.81 619.062 275.01C619.762 274.95 620.442 274.78 621.102 274.5C621.782 274.22 622.292 273.94 622.632 273.66C622.972 273.36 623.142 273.13 623.142 272.97ZM631.122 268.62C631.122 270.78 631.602 272.34 632.562 273.3C633.542 274.24 634.722 274.71 636.102 274.71C637.502 274.71 638.792 274.44 639.972 273.9V274.95C638.332 275.89 636.762 276.36 635.262 276.36C633.322 276.36 631.752 275.77 630.552 274.59C629.352 273.41 628.752 271.7 628.752 269.46C628.752 267.22 629.412 265.43 630.732 264.09C632.072 262.75 633.682 262.08 635.562 262.08C637.022 262.08 638.242 262.66 639.222 263.82C640.202 264.96 640.692 266.56 640.692 268.62H631.122ZM634.032 263.49C633.332 263.83 632.732 264.38 632.232 265.14C631.732 265.88 631.402 266.74 631.242 267.72H638.262C638.202 266.88 638.002 266.16 637.662 265.56C637.342 264.96 636.952 264.52 636.492 264.24C635.672 263.74 634.852 263.49 634.032 263.49ZM646.474 276H643.954V262.44H645.694L646.384 264.96C646.784 264.26 647.414 263.6 648.274 262.98C649.154 262.36 650.054 261.98 650.974 261.84L651.274 263.91C650.534 263.91 649.694 264.14 648.754 264.6C647.834 265.06 647.074 265.57 646.474 266.13V276ZM431.096 311.36C429.356 311.36 427.906 310.77 426.746 309.59C425.606 308.39 425.036 306.7 425.036 304.52C425.036 302.34 425.646 300.56 426.866 299.18C428.106 297.78 429.676 297.08 431.576 297.08C432.636 297.08 433.826 297.34 435.146 297.86L434.846 299.84C433.086 298.92 431.576 298.46 430.316 298.46C429.276 298.98 428.526 299.82 428.066 300.98C427.606 302.14 427.376 303.28 427.376 304.4C427.376 305.92 427.816 307.19 428.696 308.21C429.596 309.21 430.666 309.71 431.906 309.71C433.146 309.71 434.286 309.44 435.326 308.9V309.95C433.886 310.89 432.476 311.36 431.096 311.36ZM440.883 311H438.363V297.44H440.103L440.793 299.96C441.193 299.26 441.823 298.6 442.683 297.98C443.563 297.36 444.463 296.98 445.383 296.84L445.683 298.91C444.943 298.91 444.103 299.14 443.163 299.6C442.243 300.06 441.483 300.57 440.883 301.13V311ZM449.144 303.62C449.144 305.78 449.624 307.34 450.584 308.3C451.564 309.24 452.744 309.71 454.124 309.71C455.524 309.71 456.814 309.44 457.994 308.9V309.95C456.354 310.89 454.784 311.36 453.284 311.36C451.344 311.36 449.774 310.77 448.574 309.59C447.374 308.41 446.774 306.7 446.774 304.46C446.774 302.22 447.434 300.43 448.754 299.09C450.094 297.75 451.704 297.08 453.584 297.08C455.044 297.08 456.264 297.66 457.244 298.82C458.224 299.96 458.714 301.56 458.714 303.62H449.144ZM452.054 298.49C451.354 298.83 450.754 299.38 450.254 300.14C449.754 300.88 449.424 301.74 449.264 302.72H456.284C456.224 301.88 456.024 301.16 455.684 300.56C455.364 299.96 454.974 299.52 454.514 299.24C453.694 298.74 452.874 298.49 452.054 298.49ZM468.607 307.82V304.73C467.167 304.83 465.987 305.15 465.067 305.69C464.147 306.23 463.687 306.81 463.687 307.43C463.687 308.05 463.847 308.59 464.167 309.05C464.487 309.49 464.897 309.8 465.397 309.98C466.057 309.86 466.757 309.53 467.497 308.99C468.237 308.45 468.607 308.06 468.607 307.82ZM471.067 307.01C471.067 308.43 471.587 309.51 472.627 310.25L471.067 311.39L468.637 309.2C467.057 310.64 465.597 311.36 464.257 311.36C463.377 311.36 462.617 311.08 461.977 310.52C461.357 309.96 461.047 309.26 461.047 308.42C461.047 307.56 461.297 306.85 461.797 306.29C462.317 305.73 462.997 305.3 463.837 305C465.277 304.46 466.867 304.12 468.607 303.98V301.16C468.607 299.5 467.647 298.67 465.727 298.67C464.627 298.67 463.327 298.91 461.827 299.39L461.557 298.64C461.957 298.32 462.647 297.98 463.627 297.62C464.627 297.26 465.577 297.08 466.477 297.08C467.377 297.08 468.127 297.2 468.727 297.44C469.347 297.68 469.797 297.95 470.077 298.25C470.377 298.55 470.607 298.96 470.767 299.48C470.927 300 471.017 300.41 471.037 300.71C471.057 301.01 471.067 301.41 471.067 301.91V307.01ZM478.637 308.36C478.637 308.96 478.757 309.41 478.997 309.71C479.237 310.01 479.637 310.16 480.197 310.16C480.757 310.16 481.427 310.01 482.207 309.71V310.55C481.047 311.09 480.007 311.36 479.087 311.36C478.167 311.36 477.437 311.11 476.897 310.61C476.377 310.09 476.117 309.29 476.117 308.21V298.52L473.687 298.04V297.44H476.117V296.36L478.637 294.53V297.44H482.207V298.52H478.637V308.36ZM486.41 303.62C486.41 305.78 486.89 307.34 487.85 308.3C488.83 309.24 490.01 309.71 491.39 309.71C492.79 309.71 494.08 309.44 495.26 308.9V309.95C493.62 310.89 492.05 311.36 490.55 311.36C488.61 311.36 487.04 310.77 485.84 309.59C484.64 308.41 484.04 306.7 484.04 304.46C484.04 302.22 484.7 300.43 486.02 299.09C487.36 297.75 488.97 297.08 490.85 297.08C492.31 297.08 493.53 297.66 494.51 298.82C495.49 299.96 495.98 301.56 495.98 303.62H486.41ZM489.32 298.49C488.62 298.83 488.02 299.38 487.52 300.14C487.02 300.88 486.69 301.74 486.53 302.72H493.55C493.49 301.88 493.29 301.16 492.95 300.56C492.63 299.96 492.24 299.52 491.78 299.24C490.96 298.74 490.14 298.49 489.32 298.49ZM502.392 298.34C501.872 298.34 501.442 298.54 501.102 298.94C500.782 299.32 500.622 299.76 500.622 300.26C500.622 300.74 500.852 301.21 501.312 301.67C501.792 302.11 502.362 302.51 503.022 302.87C503.702 303.21 504.372 303.57 505.032 303.95C505.692 304.33 506.252 304.82 506.712 305.42C507.192 306.02 507.432 306.69 507.432 307.43C507.432 308.55 506.982 309.49 506.082 310.25C505.182 310.99 503.952 311.36 502.392 311.36C500.852 311.36 499.442 311 498.162 310.28V309.14C499.522 309.82 500.752 310.16 501.852 310.16C502.952 310.16 503.752 309.94 504.252 309.5C504.752 309.06 505.002 308.56 505.002 308C505.002 307.42 504.772 306.91 504.312 306.47C503.872 306.01 503.322 305.61 502.662 305.27C502.022 304.93 501.382 304.57 500.742 304.19C500.102 303.81 499.552 303.32 499.092 302.72C498.652 302.12 498.432 301.4 498.432 300.56C498.432 299.7 498.772 298.91 499.452 298.19C500.152 297.45 501.222 297.08 502.662 297.08C504.102 297.08 505.482 297.34 506.802 297.86L506.502 299.84C505.022 299.04 503.652 298.54 502.392 298.34ZM520.844 299.36C521.684 298.56 522.414 297.98 523.034 297.62C523.674 297.26 524.424 297.08 525.284 297.08C526.144 297.08 526.934 297.42 527.654 298.1C528.394 298.78 528.764 299.95 528.764 301.61V311H526.214V301.91C526.214 300.93 526.034 300.2 525.674 299.72C525.334 299.22 524.734 298.97 523.874 298.97C523.034 298.97 522.054 299.53 520.934 300.65V311H518.384V301.58C518.384 300.22 517.874 299.13 516.854 298.31L518.384 297.17L520.844 299.36ZM539.024 297.08C540.784 297.08 542.234 297.68 543.374 298.88C544.534 300.08 545.114 301.73 545.114 303.83C545.114 305.17 544.884 306.35 544.424 307.37C543.964 308.39 543.364 309.18 542.624 309.74C541.204 310.82 539.614 311.36 537.854 311.36C536.114 311.36 534.664 310.76 533.504 309.56C532.364 308.36 531.794 306.71 531.794 304.61C531.794 303.27 532.014 302.09 532.454 301.07C532.914 300.05 533.514 299.26 534.254 298.7C535.674 297.62 537.264 297.08 539.024 297.08ZM538.424 310.34C539.304 310.34 540.054 310 540.674 309.32C541.794 308.12 542.354 306.53 542.354 304.55C542.354 302.55 542.014 301 541.334 299.9C540.654 298.78 539.544 298.22 538.004 298.22C536.864 298.66 535.994 299.44 535.394 300.56C534.814 301.66 534.524 303 534.524 304.58C534.524 306.14 534.844 307.49 535.484 308.63C536.124 309.77 537.104 310.34 538.424 310.34ZM551.234 308.36C551.234 308.96 551.354 309.41 551.594 309.71C551.834 310.01 552.234 310.16 552.794 310.16C553.354 310.16 554.024 310.01 554.804 309.71V310.55C553.644 311.09 552.604 311.36 551.684 311.36C550.764 311.36 550.034 311.11 549.494 310.61C548.974 310.09 548.714 309.29 548.714 308.21V298.52L546.284 298.04V297.44H548.714V296.36L551.234 294.53V297.44H554.804V298.52H551.234V308.36ZM558.107 311V297.44H560.597V311H558.107ZM557.807 293.27C557.807 292.83 557.947 292.46 558.227 292.16C558.527 291.86 558.887 291.71 559.307 291.71C559.747 291.71 560.117 291.86 560.417 292.16C560.737 292.46 560.897 292.82 560.897 293.24C560.897 293.66 560.737 294.03 560.417 294.35C560.117 294.67 559.757 294.83 559.337 294.83C558.917 294.83 558.557 294.68 558.257 294.38C557.957 294.06 557.807 293.69 557.807 293.27ZM572.099 297.44V298.52H568.469V311H565.949V298.52L563.489 298.04V297.44H565.979C566.099 295.32 566.659 293.59 567.659 292.25C568.679 290.91 570.049 290.24 571.769 290.24C572.329 290.24 573.089 290.36 574.049 290.6L573.749 292.55C573.309 292.31 572.739 292.1 572.039 291.92C571.359 291.74 570.839 291.65 570.479 291.65C569.799 291.99 569.299 292.75 568.979 293.93C568.679 295.11 568.509 296.28 568.469 297.44H572.099ZM575.099 311V297.44H577.589V311H575.099ZM574.799 293.27C574.799 292.83 574.939 292.46 575.219 292.16C575.519 291.86 575.879 291.71 576.299 291.71C576.739 291.71 577.109 291.86 577.409 292.16C577.729 292.46 577.889 292.82 577.889 293.24C577.889 293.66 577.729 294.03 577.409 294.35C577.109 294.67 576.749 294.83 576.329 294.83C575.909 294.83 575.549 294.68 575.249 294.38C574.949 294.06 574.799 293.69 574.799 293.27ZM586.692 311.36C584.952 311.36 583.502 310.77 582.342 309.59C581.202 308.39 580.632 306.7 580.632 304.52C580.632 302.34 581.242 300.56 582.462 299.18C583.702 297.78 585.272 297.08 587.172 297.08C588.232 297.08 589.422 297.34 590.742 297.86L590.442 299.84C588.682 298.92 587.172 298.46 585.912 298.46C584.872 298.98 584.122 299.82 583.662 300.98C583.202 302.14 582.972 303.28 582.972 304.4C582.972 305.92 583.412 307.19 584.292 308.21C585.192 309.21 586.262 309.71 587.502 309.71C588.742 309.71 589.882 309.44 590.922 308.9V309.95C589.482 310.89 588.072 311.36 586.692 311.36ZM600.589 307.82V304.73C599.149 304.83 597.969 305.15 597.049 305.69C596.129 306.23 595.669 306.81 595.669 307.43C595.669 308.05 595.829 308.59 596.149 309.05C596.469 309.49 596.879 309.8 597.379 309.98C598.039 309.86 598.739 309.53 599.479 308.99C600.219 308.45 600.589 308.06 600.589 307.82ZM603.049 307.01C603.049 308.43 603.569 309.51 604.609 310.25L603.049 311.39L600.619 309.2C599.039 310.64 597.579 311.36 596.239 311.36C595.359 311.36 594.599 311.08 593.959 310.52C593.339 309.96 593.029 309.26 593.029 308.42C593.029 307.56 593.279 306.85 593.779 306.29C594.299 305.73 594.979 305.3 595.819 305C597.259 304.46 598.849 304.12 600.589 303.98V301.16C600.589 299.5 599.629 298.67 597.709 298.67C596.609 298.67 595.309 298.91 593.809 299.39L593.539 298.64C593.939 298.32 594.629 297.98 595.609 297.62C596.609 297.26 597.559 297.08 598.459 297.08C599.359 297.08 600.109 297.2 600.709 297.44C601.329 297.68 601.779 297.95 602.059 298.25C602.359 298.55 602.589 298.96 602.749 299.48C602.909 300 602.999 300.41 603.019 300.71C603.039 301.01 603.049 301.41 603.049 301.91V307.01ZM610.619 308.36C610.619 308.96 610.739 309.41 610.979 309.71C611.219 310.01 611.619 310.16 612.179 310.16C612.739 310.16 613.409 310.01 614.189 309.71V310.55C613.029 311.09 611.989 311.36 611.069 311.36C610.149 311.36 609.419 311.11 608.879 310.61C608.359 310.09 608.099 309.29 608.099 308.21V298.52L605.669 298.04V297.44H608.099V296.36L610.619 294.53V297.44H614.189V298.52H610.619V308.36ZM617.492 311V297.44H619.982V311H617.492ZM617.192 293.27C617.192 292.83 617.332 292.46 617.612 292.16C617.912 291.86 618.272 291.71 618.692 291.71C619.132 291.71 619.502 291.86 619.802 292.16C620.122 292.46 620.282 292.82 620.282 293.24C620.282 293.66 620.122 294.03 619.802 294.35C619.502 294.67 619.142 294.83 618.722 294.83C618.302 294.83 617.942 294.68 617.642 294.38C617.342 294.06 617.192 293.69 617.192 293.27ZM630.284 297.08C632.044 297.08 633.494 297.68 634.634 298.88C635.794 300.08 636.374 301.73 636.374 303.83C636.374 305.17 636.144 306.35 635.684 307.37C635.224 308.39 634.624 309.18 633.884 309.74C632.464 310.82 630.874 311.36 629.114 311.36C627.374 311.36 625.924 310.76 624.764 309.56C623.624 308.36 623.054 306.71 623.054 304.61C623.054 303.27 623.274 302.09 623.714 301.07C624.174 300.05 624.774 299.26 625.514 298.7C626.934 297.62 628.524 297.08 630.284 297.08ZM629.684 310.34C630.564 310.34 631.314 310 631.934 309.32C633.054 308.12 633.614 306.53 633.614 304.55C633.614 302.55 633.274 301 632.594 299.9C631.914 298.78 630.804 298.22 629.264 298.22C628.124 298.66 627.254 299.44 626.654 300.56C626.074 301.66 625.784 303 625.784 304.58C625.784 306.14 626.104 307.49 626.744 308.63C627.384 309.77 628.364 310.34 629.684 310.34ZM642.104 299.36C642.944 298.56 643.674 297.98 644.294 297.62C644.934 297.26 645.684 297.08 646.544 297.08C647.404 297.08 648.194 297.42 648.914 298.1C649.654 298.78 650.024 299.95 650.024 301.61V311H647.474V301.91C647.474 300.93 647.294 300.2 646.934 299.72C646.594 299.22 645.994 298.97 645.134 298.97C644.294 298.97 643.314 299.53 642.194 300.65V311H639.644V301.58C639.644 300.22 639.134 299.13 638.114 298.31L639.644 297.17L642.104 299.36ZM454.764 342.82V339.73C453.324 339.83 452.144 340.15 451.224 340.69C450.304 341.23 449.844 341.81 449.844 342.43C449.844 343.05 450.004 343.59 450.324 344.05C450.644 344.49 451.054 344.8 451.554 344.98C452.214 344.86 452.914 344.53 453.654 343.99C454.394 343.45 454.764 343.06 454.764 342.82ZM457.224 342.01C457.224 343.43 457.744 344.51 458.784 345.25L457.224 346.39L454.794 344.2C453.214 345.64 451.754 346.36 450.414 346.36C449.534 346.36 448.774 346.08 448.134 345.52C447.514 344.96 447.204 344.26 447.204 343.42C447.204 342.56 447.454 341.85 447.954 341.29C448.474 340.73 449.154 340.3 449.994 340C451.434 339.46 453.024 339.12 454.764 338.98V336.16C454.764 334.5 453.804 333.67 451.884 333.67C450.784 333.67 449.484 333.91 447.984 334.39L447.714 333.64C448.114 333.32 448.804 332.98 449.784 332.62C450.784 332.26 451.734 332.08 452.634 332.08C453.534 332.08 454.284 332.2 454.884 332.44C455.504 332.68 455.954 332.95 456.234 333.25C456.534 333.55 456.764 333.96 456.924 334.48C457.084 335 457.174 335.41 457.194 335.71C457.214 336.01 457.224 336.41 457.224 336.91V342.01ZM464.404 334.36C465.244 333.56 465.974 332.98 466.594 332.62C467.234 332.26 467.984 332.08 468.844 332.08C469.704 332.08 470.494 332.42 471.214 333.1C471.954 333.78 472.324 334.95 472.324 336.61V346H469.774V336.91C469.774 335.93 469.594 335.2 469.234 334.72C468.894 334.22 468.294 333.97 467.434 333.97C466.594 333.97 465.614 334.53 464.494 335.65V346H461.944V336.58C461.944 335.22 461.434 334.13 460.414 333.31L461.944 332.17L464.404 334.36ZM487.264 341.98C487.264 343.36 487.774 344.46 488.794 345.28L487.264 346.39L484.804 344.2C484.004 344.96 483.284 345.51 482.644 345.85C482.004 346.19 481.344 346.36 480.664 346.36C479.984 346.36 479.384 346.26 478.864 346.06C478.344 345.86 477.794 345.53 477.214 345.07C476.654 344.59 476.194 343.85 475.834 342.85C475.494 341.83 475.324 340.52 475.324 338.92C475.324 337.32 475.794 335.79 476.734 334.33C477.694 332.85 479.004 332.11 480.664 332.11C481.904 332.11 483.254 332.57 484.714 333.49V325.51H487.264V341.98ZM484.714 342.97V334.6C483.654 333.9 482.684 333.55 481.804 333.55C480.644 333.55 479.714 334.1 479.014 335.2C478.314 336.28 477.964 337.64 477.964 339.28C477.964 340.92 478.214 342.24 478.714 343.24C479.234 344.22 479.874 344.81 480.634 345.01C481.334 344.95 482.014 344.78 482.674 344.5C483.354 344.22 483.864 343.94 484.204 343.66C484.544 343.36 484.714 343.13 484.714 342.97ZM502.114 333.34C501.594 333.34 501.164 333.54 500.824 333.94C500.504 334.32 500.344 334.76 500.344 335.26C500.344 335.74 500.574 336.21 501.034 336.67C501.514 337.11 502.084 337.51 502.744 337.87C503.424 338.21 504.094 338.57 504.754 338.95C505.414 339.33 505.974 339.82 506.434 340.42C506.914 341.02 507.154 341.69 507.154 342.43C507.154 343.55 506.704 344.49 505.804 345.25C504.904 345.99 503.674 346.36 502.114 346.36C500.574 346.36 499.164 346 497.884 345.28V344.14C499.244 344.82 500.474 345.16 501.574 345.16C502.674 345.16 503.474 344.94 503.974 344.5C504.474 344.06 504.724 343.56 504.724 343C504.724 342.42 504.494 341.91 504.034 341.47C503.594 341.01 503.044 340.61 502.384 340.27C501.744 339.93 501.104 339.57 500.464 339.19C499.824 338.81 499.274 338.32 498.814 337.72C498.374 337.12 498.154 336.4 498.154 335.56C498.154 334.7 498.494 333.91 499.174 333.19C499.874 332.45 500.944 332.08 502.384 332.08C503.824 332.08 505.204 332.34 506.524 332.86L506.224 334.84C504.744 334.04 503.374 333.54 502.114 333.34ZM511.356 338.62C511.356 340.78 511.836 342.34 512.796 343.3C513.776 344.24 514.956 344.71 516.336 344.71C517.736 344.71 519.026 344.44 520.206 343.9V344.95C518.566 345.89 516.996 346.36 515.496 346.36C513.556 346.36 511.986 345.77 510.786 344.59C509.586 343.41 508.986 341.7 508.986 339.46C508.986 337.22 509.646 335.43 510.966 334.09C512.306 332.75 513.916 332.08 515.796 332.08C517.256 332.08 518.476 332.66 519.456 333.82C520.436 334.96 520.926 336.56 520.926 338.62H511.356ZM514.266 333.49C513.566 333.83 512.966 334.38 512.466 335.14C511.966 335.88 511.636 336.74 511.476 337.72H518.496C518.436 336.88 518.236 336.16 517.896 335.56C517.576 334.96 517.186 334.52 516.726 334.24C515.906 333.74 515.086 333.49 514.266 333.49ZM527.129 334.36C527.969 333.56 528.699 332.98 529.319 332.62C529.959 332.26 530.709 332.08 531.569 332.08C532.429 332.08 533.219 332.42 533.939 333.1C534.679 333.78 535.049 334.95 535.049 336.61V346H532.499V336.91C532.499 335.93 532.319 335.2 531.959 334.72C531.619 334.22 531.019 333.97 530.159 333.97C529.319 333.97 528.339 334.53 527.219 335.65V346H524.669V336.58C524.669 335.22 524.159 334.13 523.139 333.31L524.669 332.17L527.129 334.36ZM549.989 341.98C549.989 343.36 550.499 344.46 551.519 345.28L549.989 346.39L547.529 344.2C546.729 344.96 546.009 345.51 545.369 345.85C544.729 346.19 544.069 346.36 543.389 346.36C542.709 346.36 542.109 346.26 541.589 346.06C541.069 345.86 540.519 345.53 539.939 345.07C539.379 344.59 538.919 343.85 538.559 342.85C538.219 341.83 538.049 340.52 538.049 338.92C538.049 337.32 538.519 335.79 539.459 334.33C540.419 332.85 541.729 332.11 543.389 332.11C544.629 332.11 545.979 332.57 547.439 333.49V325.51H549.989V341.98ZM547.439 342.97V334.6C546.379 333.9 545.409 333.55 544.529 333.55C543.369 333.55 542.439 334.1 541.739 335.2C541.039 336.28 540.689 337.64 540.689 339.28C540.689 340.92 540.939 342.24 541.439 343.24C541.959 344.22 542.599 344.81 543.359 345.01C544.059 344.95 544.739 344.78 545.399 344.5C546.079 344.22 546.589 343.94 546.929 343.66C547.269 343.36 547.439 343.13 547.439 342.97ZM557.339 333.34C556.819 333.34 556.389 333.54 556.049 333.94C555.729 334.32 555.569 334.76 555.569 335.26C555.569 335.74 555.799 336.21 556.259 336.67C556.739 337.11 557.309 337.51 557.969 337.87C558.649 338.21 559.319 338.57 559.979 338.95C560.639 339.33 561.199 339.82 561.659 340.42C562.139 341.02 562.379 341.69 562.379 342.43C562.379 343.55 561.929 344.49 561.029 345.25C560.129 345.99 558.899 346.36 557.339 346.36C555.799 346.36 554.389 346 553.109 345.28V344.14C554.469 344.82 555.699 345.16 556.799 345.16C557.899 345.16 558.699 344.94 559.199 344.5C559.699 344.06 559.949 343.56 559.949 343C559.949 342.42 559.719 341.91 559.259 341.47C558.819 341.01 558.269 340.61 557.609 340.27C556.969 339.93 556.329 339.57 555.689 339.19C555.049 338.81 554.499 338.32 554.039 337.72C553.599 337.12 553.379 336.4 553.379 335.56C553.379 334.7 553.719 333.91 554.399 333.19C555.099 332.45 556.169 332.08 557.609 332.08C559.049 332.08 560.429 332.34 561.749 332.86L561.449 334.84C559.969 334.04 558.599 333.54 557.339 333.34ZM573.181 346V332.44H575.671V346H573.181ZM572.881 328.27C572.881 327.83 573.021 327.46 573.301 327.16C573.601 326.86 573.961 326.71 574.381 326.71C574.821 326.71 575.191 326.86 575.491 327.16C575.811 327.46 575.971 327.82 575.971 328.24C575.971 328.66 575.811 329.03 575.491 329.35C575.191 329.67 574.831 329.83 574.411 329.83C573.991 329.83 573.631 329.68 573.331 329.38C573.031 329.06 572.881 328.69 572.881 328.27ZM583.183 343.36C583.183 343.96 583.303 344.41 583.543 344.71C583.783 345.01 584.183 345.16 584.743 345.16C585.303 345.16 585.973 345.01 586.753 344.71V345.55C585.593 346.09 584.553 346.36 583.633 346.36C582.713 346.36 581.983 346.11 581.443 345.61C580.923 345.09 580.663 344.29 580.663 343.21V333.52L578.233 333.04V332.44H580.663V331.36L583.183 329.53V332.44H586.753V333.52H583.183V343.36ZM603.346 332.08C605.106 332.08 606.556 332.68 607.696 333.88C608.856 335.08 609.436 336.73 609.436 338.83C609.436 340.17 609.206 341.35 608.746 342.37C608.286 343.39 607.686 344.18 606.946 344.74C605.526 345.82 603.936 346.36 602.176 346.36C600.436 346.36 598.986 345.76 597.826 344.56C596.686 343.36 596.116 341.71 596.116 339.61C596.116 338.27 596.336 337.09 596.776 336.07C597.236 335.05 597.836 334.26 598.576 333.7C599.996 332.62 601.586 332.08 603.346 332.08ZM602.746 345.34C603.626 345.34 604.376 345 604.996 344.32C606.116 343.12 606.676 341.53 606.676 339.55C606.676 337.55 606.336 336 605.656 334.9C604.976 333.78 603.866 333.22 602.326 333.22C601.186 333.66 600.316 334.44 599.716 335.56C599.136 336.66 598.846 338 598.846 339.58C598.846 341.14 599.166 342.49 599.806 343.63C600.446 344.77 601.426 345.34 602.746 345.34ZM619.546 332.44V333.52H615.916V346H613.396V333.52L610.936 333.04V332.44H613.426C613.546 330.32 614.106 328.59 615.106 327.25C616.126 325.91 617.496 325.24 619.216 325.24C619.776 325.24 620.536 325.36 621.496 325.6L621.196 327.55C620.756 327.31 620.186 327.1 619.486 326.92C618.806 326.74 618.286 326.65 617.926 326.65C617.246 326.99 616.746 327.75 616.426 328.93C616.126 330.11 615.956 331.28 615.916 332.44H619.546ZM629.536 332.44V333.52H625.906V346H623.386V333.52L620.926 333.04V332.44H623.416C623.536 330.32 624.096 328.59 625.096 327.25C626.116 325.91 627.486 325.24 629.206 325.24C629.766 325.24 630.526 325.36 631.486 325.6L631.186 327.55C630.746 327.31 630.176 327.1 629.476 326.92C628.796 326.74 628.276 326.65 627.916 326.65C627.236 326.99 626.736 327.75 626.416 328.93C626.116 330.11 625.946 331.28 625.906 332.44H629.536ZM460.941 378.36C460.941 378.96 461.061 379.41 461.301 379.71C461.541 380.01 461.941 380.16 462.501 380.16C463.061 380.16 463.731 380.01 464.511 379.71V380.55C463.351 381.09 462.311 381.36 461.391 381.36C460.471 381.36 459.741 381.11 459.201 380.61C458.681 380.09 458.421 379.29 458.421 378.21V368.52L455.991 368.04V367.44H458.421V366.36L460.941 364.53V367.44H464.511V368.52H460.941V378.36ZM473.604 367.08C475.364 367.08 476.814 367.68 477.954 368.88C479.114 370.08 479.694 371.73 479.694 373.83C479.694 375.17 479.464 376.35 479.004 377.37C478.544 378.39 477.944 379.18 477.204 379.74C475.784 380.82 474.194 381.36 472.434 381.36C470.694 381.36 469.244 380.76 468.084 379.56C466.944 378.36 466.374 376.71 466.374 374.61C466.374 373.27 466.594 372.09 467.034 371.07C467.494 370.05 468.094 369.26 468.834 368.7C470.254 367.62 471.844 367.08 473.604 367.08ZM473.004 380.34C473.884 380.34 474.634 380 475.254 379.32C476.374 378.12 476.934 376.53 476.934 374.55C476.934 372.55 476.594 371 475.914 369.9C475.234 368.78 474.124 368.22 472.584 368.22C471.444 368.66 470.574 369.44 469.974 370.56C469.394 371.66 469.104 373 469.104 374.58C469.104 376.14 469.424 377.49 470.064 378.63C470.704 379.77 471.684 380.34 473.004 380.34ZM511.944 361.14H513.444L506.004 381.45H505.524L500.934 369.15L496.434 381.45H495.954L488.364 361.14H491.634L496.914 377.4L500.274 367.38L497.934 361.14H501.204L506.484 377.4L511.944 361.14ZM523.178 367.14C524.098 367.14 524.918 367.48 525.638 368.16C526.358 368.84 526.718 370.01 526.718 371.67V381H524.198V371.97C524.198 370.99 524.018 370.26 523.658 369.78C523.318 369.28 522.648 369.03 521.648 369.03C520.668 369.03 519.638 369.56 518.558 370.62V381H516.038V360.51H518.468V369.36C520.048 367.88 521.618 367.14 523.178 367.14ZM537.396 377.82V374.73C535.956 374.83 534.776 375.15 533.856 375.69C532.936 376.23 532.476 376.81 532.476 377.43C532.476 378.05 532.636 378.59 532.956 379.05C533.276 379.49 533.686 379.8 534.186 379.98C534.846 379.86 535.546 379.53 536.286 378.99C537.026 378.45 537.396 378.06 537.396 377.82ZM539.856 377.01C539.856 378.43 540.376 379.51 541.416 380.25L539.856 381.39L537.426 379.2C535.846 380.64 534.386 381.36 533.046 381.36C532.166 381.36 531.406 381.08 530.766 380.52C530.146 379.96 529.836 379.26 529.836 378.42C529.836 377.56 530.086 376.85 530.586 376.29C531.106 375.73 531.786 375.3 532.626 375C534.066 374.46 535.656 374.12 537.396 373.98V371.16C537.396 369.5 536.436 368.67 534.516 368.67C533.416 368.67 532.116 368.91 530.616 369.39L530.346 368.64C530.746 368.32 531.436 367.98 532.416 367.62C533.416 367.26 534.366 367.08 535.266 367.08C536.166 367.08 536.916 367.2 537.516 367.44C538.136 367.68 538.586 367.95 538.866 368.25C539.166 368.55 539.396 368.96 539.556 369.48C539.716 370 539.806 370.41 539.826 370.71C539.846 371.01 539.856 371.41 539.856 371.91V377.01ZM547.426 378.36C547.426 378.96 547.546 379.41 547.786 379.71C548.026 380.01 548.426 380.16 548.986 380.16C549.546 380.16 550.216 380.01 550.996 379.71V380.55C549.836 381.09 548.796 381.36 547.876 381.36C546.956 381.36 546.226 381.11 545.686 380.61C545.166 380.09 544.906 379.29 544.906 378.21V368.52L542.476 368.04V367.44H544.906V366.36L547.426 364.53V367.44H550.996V368.52H547.426V378.36ZM557.119 368.34C556.599 368.34 556.169 368.54 555.829 368.94C555.509 369.32 555.349 369.76 555.349 370.26C555.349 370.74 555.579 371.21 556.039 371.67C556.519 372.11 557.089 372.51 557.749 372.87C558.429 373.21 559.099 373.57 559.759 373.95C560.419 374.33 560.979 374.82 561.439 375.42C561.919 376.02 562.159 376.69 562.159 377.43C562.159 378.55 561.709 379.49 560.809 380.25C559.909 380.99 558.679 381.36 557.119 381.36C555.579 381.36 554.169 381 552.889 380.28V379.14C554.249 379.82 555.479 380.16 556.579 380.16C557.679 380.16 558.479 379.94 558.979 379.5C559.479 379.06 559.729 378.56 559.729 378C559.729 377.42 559.499 376.91 559.039 376.47C558.599 376.01 558.049 375.61 557.389 375.27C556.749 374.93 556.109 374.57 555.469 374.19C554.829 373.81 554.279 373.32 553.819 372.72C553.379 372.12 553.159 371.4 553.159 370.56C553.159 369.7 553.499 368.91 554.179 368.19C554.879 367.45 555.949 367.08 557.389 367.08C558.829 367.08 560.209 367.34 561.529 367.86L561.229 369.84C559.749 369.04 558.379 368.54 557.119 368.34ZM568.821 371.16V381H565.911V361.14H568.821V370.02H577.911V361.14H580.821V381H577.911V371.16H568.821ZM591.554 367.08C593.314 367.08 594.764 367.68 595.904 368.88C597.064 370.08 597.644 371.73 597.644 373.83C597.644 375.17 597.414 376.35 596.954 377.37C596.494 378.39 595.894 379.18 595.154 379.74C593.734 380.82 592.144 381.36 590.384 381.36C588.644 381.36 587.194 380.76 586.034 379.56C584.894 378.36 584.324 376.71 584.324 374.61C584.324 373.27 584.544 372.09 584.984 371.07C585.444 370.05 586.044 369.26 586.784 368.7C588.204 367.62 589.794 367.08 591.554 367.08ZM590.954 380.34C591.834 380.34 592.584 380 593.204 379.32C594.324 378.12 594.884 376.53 594.884 374.55C594.884 372.55 594.544 371 593.864 369.9C593.184 368.78 592.074 368.22 590.534 368.22C589.394 368.66 588.524 369.44 587.924 370.56C587.344 371.66 587.054 373 587.054 374.58C587.054 376.14 587.374 377.49 588.014 378.63C588.654 379.77 589.634 380.34 590.954 380.34ZM606.554 367.08C608.314 367.08 609.764 367.68 610.904 368.88C612.064 370.08 612.644 371.73 612.644 373.83C612.644 375.17 612.414 376.35 611.954 377.37C611.494 378.39 610.894 379.18 610.154 379.74C608.734 380.82 607.144 381.36 605.384 381.36C603.644 381.36 602.194 380.76 601.034 379.56C599.894 378.36 599.324 376.71 599.324 374.61C599.324 373.27 599.544 372.09 599.984 371.07C600.444 370.05 601.044 369.26 601.784 368.7C603.204 367.62 604.794 367.08 606.554 367.08ZM605.954 380.34C606.834 380.34 607.584 380 608.204 379.32C609.324 378.12 609.884 376.53 609.884 374.55C609.884 372.55 609.544 371 608.864 369.9C608.184 368.78 607.074 368.22 605.534 368.22C604.394 368.66 603.524 369.44 602.924 370.56C602.344 371.66 602.054 373 602.054 374.58C602.054 376.14 602.374 377.49 603.014 378.63C603.654 379.77 604.634 380.34 605.954 380.34ZM618.284 381H615.764V360.51H618.284V373.2L625.214 367.44H627.194L620.144 372.78L627.644 381L624.644 381.39L618.284 373.47V381Z" fill="#050505"/>
<path d="M888.087 277H885.177V269.62L878.397 257.14H881.667L887.217 268.54L892.407 257.14H893.907L888.087 269.47V277ZM900.427 263.08C902.187 263.08 903.637 263.68 904.777 264.88C905.937 266.08 906.517 267.73 906.517 269.83C906.517 271.17 906.287 272.35 905.827 273.37C905.367 274.39 904.767 275.18 904.027 275.74C902.607 276.82 901.017 277.36 899.257 277.36C897.517 277.36 896.067 276.76 894.907 275.56C893.767 274.36 893.197 272.71 893.197 270.61C893.197 269.27 893.417 268.09 893.857 267.07C894.317 266.05 894.917 265.26 895.657 264.7C897.077 263.62 898.667 263.08 900.427 263.08ZM899.827 276.34C900.707 276.34 901.457 276 902.077 275.32C903.197 274.12 903.757 272.53 903.757 270.55C903.757 268.55 903.417 267 902.737 265.9C902.057 264.78 900.947 264.22 899.407 264.22C898.267 264.66 897.397 265.44 896.797 266.56C896.217 267.66 895.927 269 895.927 270.58C895.927 272.14 896.247 273.49 896.887 274.63C897.527 275.77 898.507 276.34 899.827 276.34ZM919.297 272.98C919.297 274.36 919.817 275.45 920.857 276.25L919.297 277.36L916.867 275.17C916.047 275.95 915.317 276.51 914.677 276.85C914.037 277.19 913.277 277.36 912.397 277.36C911.537 277.36 910.737 277.03 909.997 276.37C909.277 275.69 908.917 274.53 908.917 272.89V263.44H911.467V273.04C911.467 274 911.637 274.73 911.977 275.23C912.337 275.71 912.947 275.95 913.807 275.95C914.687 275.95 915.667 275.31 916.747 274.03V263.44H919.297V272.98ZM933.741 277H931.221V263.44H932.961L933.651 265.96C934.051 265.26 934.681 264.6 935.541 263.98C936.421 263.36 937.321 262.98 938.241 262.84L938.541 264.91C937.801 264.91 936.961 265.14 936.021 265.6C935.101 266.06 934.341 266.57 933.741 267.13V277ZM942.002 269.62C942.002 271.78 942.482 273.34 943.442 274.3C944.422 275.24 945.602 275.71 946.982 275.71C948.382 275.71 949.672 275.44 950.852 274.9V275.95C949.212 276.89 947.642 277.36 946.142 277.36C944.202 277.36 942.632 276.77 941.432 275.59C940.232 274.41 939.632 272.7 939.632 270.46C939.632 268.22 940.292 266.43 941.612 265.09C942.952 263.75 944.562 263.08 946.442 263.08C947.902 263.08 949.122 263.66 950.102 264.82C951.082 265.96 951.572 267.56 951.572 269.62H942.002ZM944.912 264.49C944.212 264.83 943.612 265.38 943.112 266.14C942.612 266.88 942.282 267.74 942.122 268.72H949.142C949.082 267.88 948.882 267.16 948.542 266.56C948.222 265.96 947.832 265.52 947.372 265.24C946.552 264.74 945.732 264.49 944.912 264.49ZM959.754 277.36C958.014 277.36 956.564 276.77 955.404 275.59C954.264 274.39 953.694 272.7 953.694 270.52C953.694 268.34 954.304 266.56 955.524 265.18C956.764 263.78 958.334 263.08 960.234 263.08C961.294 263.08 962.484 263.34 963.804 263.86L963.504 265.84C961.744 264.92 960.234 264.46 958.974 264.46C957.934 264.98 957.184 265.82 956.724 266.98C956.264 268.14 956.034 269.28 956.034 270.4C956.034 271.92 956.474 273.19 957.354 274.21C958.254 275.21 959.324 275.71 960.564 275.71C961.804 275.71 962.944 275.44 963.984 274.9V275.95C962.544 276.89 961.134 277.36 959.754 277.36ZM968.252 269.62C968.252 271.78 968.732 273.34 969.692 274.3C970.672 275.24 971.852 275.71 973.232 275.71C974.632 275.71 975.922 275.44 977.102 274.9V275.95C975.462 276.89 973.892 277.36 972.392 277.36C970.452 277.36 968.882 276.77 967.682 275.59C966.482 274.41 965.882 272.7 965.882 270.46C965.882 268.22 966.542 266.43 967.862 265.09C969.202 263.75 970.812 263.08 972.692 263.08C974.152 263.08 975.372 263.66 976.352 264.82C977.332 265.96 977.822 267.56 977.822 269.62H968.252ZM971.162 264.49C970.462 264.83 969.862 265.38 969.362 266.14C968.862 266.88 968.532 267.74 968.372 268.72H975.392C975.332 267.88 975.132 267.16 974.792 266.56C974.472 265.96 974.082 265.52 973.622 265.24C972.802 264.74 971.982 264.49 971.162 264.49ZM981.414 277V263.44H983.904V277H981.414ZM981.114 259.27C981.114 258.83 981.254 258.46 981.534 258.16C981.834 257.86 982.194 257.71 982.614 257.71C983.054 257.71 983.424 257.86 983.724 258.16C984.044 258.46 984.204 258.82 984.204 259.24C984.204 259.66 984.044 260.03 983.724 260.35C983.424 260.67 983.064 260.83 982.644 260.83C982.224 260.83 981.864 260.68 981.564 260.38C981.264 260.06 981.114 259.69 981.114 259.27ZM992.796 277.39H992.346L986.466 263.44H989.106L993.246 273.94L997.176 263.44H998.316L992.796 277.39ZM1001.77 269.62C1001.77 271.78 1002.25 273.34 1003.21 274.3C1004.19 275.24 1005.37 275.71 1006.75 275.71C1008.15 275.71 1009.44 275.44 1010.62 274.9V275.95C1008.98 276.89 1007.41 277.36 1005.91 277.36C1003.97 277.36 1002.4 276.77 1001.2 275.59C999.997 274.41 999.397 272.7 999.397 270.46C999.397 268.22 1000.06 266.43 1001.38 265.09C1002.72 263.75 1004.33 263.08 1006.21 263.08C1007.67 263.08 1008.89 263.66 1009.87 264.82C1010.85 265.96 1011.34 267.56 1011.34 269.62H1001.77ZM1004.68 264.49C1003.98 264.83 1003.38 265.38 1002.88 266.14C1002.38 266.88 1002.05 267.74 1001.89 268.72H1008.91C1008.85 267.88 1008.65 267.16 1008.31 266.56C1007.99 265.96 1007.6 265.52 1007.14 265.24C1006.32 264.74 1005.5 264.49 1004.68 264.49ZM1032.93 274.36C1032.93 274.96 1033.05 275.41 1033.29 275.71C1033.53 276.01 1033.93 276.16 1034.49 276.16C1035.05 276.16 1035.72 276.01 1036.5 275.71V276.55C1035.34 277.09 1034.3 277.36 1033.38 277.36C1032.46 277.36 1031.73 277.11 1031.19 276.61C1030.67 276.09 1030.41 275.29 1030.41 274.21V264.52L1027.98 264.04V263.44H1030.41V262.36L1032.93 260.53V263.44H1036.5V264.52H1032.93V274.36ZM1046.97 263.14C1047.89 263.14 1048.71 263.48 1049.43 264.16C1050.15 264.84 1050.51 266.01 1050.51 267.67V277H1047.99V267.97C1047.99 266.99 1047.81 266.26 1047.45 265.78C1047.11 265.28 1046.44 265.03 1045.44 265.03C1044.46 265.03 1043.43 265.56 1042.35 266.62V277H1039.83V256.51H1042.26V265.36C1043.84 263.88 1045.41 263.14 1046.97 263.14ZM1055.79 269.62C1055.79 271.78 1056.27 273.34 1057.23 274.3C1058.21 275.24 1059.39 275.71 1060.77 275.71C1062.17 275.71 1063.46 275.44 1064.64 274.9V275.95C1063 276.89 1061.43 277.36 1059.93 277.36C1057.99 277.36 1056.42 276.77 1055.22 275.59C1054.02 274.41 1053.42 272.7 1053.42 270.46C1053.42 268.22 1054.08 266.43 1055.4 265.09C1056.74 263.75 1058.35 263.08 1060.23 263.08C1061.69 263.08 1062.91 263.66 1063.89 264.82C1064.87 265.96 1065.36 267.56 1065.36 269.62H1055.79ZM1058.7 264.49C1058 264.83 1057.4 265.38 1056.9 266.14C1056.4 266.88 1056.07 267.74 1055.91 268.72H1062.93C1062.87 267.88 1062.67 267.16 1062.33 266.56C1062.01 265.96 1061.62 265.52 1061.16 265.24C1060.34 264.74 1059.52 264.49 1058.7 264.49ZM857.227 300.36C858.067 299.56 858.797 298.98 859.417 298.62C860.057 298.26 860.807 298.08 861.667 298.08C862.527 298.08 863.317 298.42 864.037 299.1C864.777 299.78 865.147 300.95 865.147 302.61V312H862.597V302.91C862.597 301.93 862.417 301.2 862.057 300.72C861.717 300.22 861.117 299.97 860.257 299.97C859.417 299.97 858.437 300.53 857.317 301.65V312H854.767V302.58C854.767 301.22 854.257 300.13 853.237 299.31L854.767 298.17L857.227 300.36ZM875.407 298.08C877.167 298.08 878.617 298.68 879.757 299.88C880.917 301.08 881.497 302.73 881.497 304.83C881.497 306.17 881.267 307.35 880.807 308.37C880.347 309.39 879.747 310.18 879.007 310.74C877.587 311.82 875.997 312.36 874.237 312.36C872.497 312.36 871.047 311.76 869.887 310.56C868.747 309.36 868.177 307.71 868.177 305.61C868.177 304.27 868.397 303.09 868.837 302.07C869.297 301.05 869.897 300.26 870.637 299.7C872.057 298.62 873.647 298.08 875.407 298.08ZM874.807 311.34C875.687 311.34 876.437 311 877.057 310.32C878.177 309.12 878.737 307.53 878.737 305.55C878.737 303.55 878.397 302 877.717 300.9C877.037 299.78 875.927 299.22 874.387 299.22C873.247 299.66 872.377 300.44 871.777 301.56C871.197 302.66 870.907 304 870.907 305.58C870.907 307.14 871.227 308.49 871.867 309.63C872.507 310.77 873.487 311.34 874.807 311.34ZM887.617 309.36C887.617 309.96 887.737 310.41 887.977 310.71C888.217 311.01 888.617 311.16 889.177 311.16C889.737 311.16 890.407 311.01 891.187 310.71V311.55C890.027 312.09 888.987 312.36 888.067 312.36C887.147 312.36 886.417 312.11 885.877 311.61C885.357 311.09 885.097 310.29 885.097 309.21V299.52L882.667 299.04V298.44H885.097V297.36L887.617 295.53V298.44H891.187V299.52H887.617V309.36ZM894.49 312V298.44H896.98V312H894.49ZM894.19 294.27C894.19 293.83 894.33 293.46 894.61 293.16C894.91 292.86 895.27 292.71 895.69 292.71C896.13 292.71 896.5 292.86 896.8 293.16C897.12 293.46 897.28 293.82 897.28 294.24C897.28 294.66 897.12 295.03 896.8 295.35C896.5 295.67 896.14 295.83 895.72 295.83C895.3 295.83 894.94 295.68 894.64 295.38C894.34 295.06 894.19 294.69 894.19 294.27ZM908.482 298.44V299.52H904.852V312H902.332V299.52L899.872 299.04V298.44H902.362C902.482 296.32 903.042 294.59 904.042 293.25C905.062 291.91 906.432 291.24 908.152 291.24C908.712 291.24 909.472 291.36 910.432 291.6L910.132 293.55C909.692 293.31 909.122 293.1 908.422 292.92C907.742 292.74 907.222 292.65 906.862 292.65C906.182 292.99 905.682 293.75 905.362 294.93C905.062 296.11 904.892 297.28 904.852 298.44H908.482ZM911.482 312V298.44H913.972V312H911.482ZM911.182 294.27C911.182 293.83 911.322 293.46 911.602 293.16C911.902 292.86 912.262 292.71 912.682 292.71C913.122 292.71 913.492 292.86 913.792 293.16C914.112 293.46 914.272 293.82 914.272 294.24C914.272 294.66 914.112 295.03 913.792 295.35C913.492 295.67 913.132 295.83 912.712 295.83C912.292 295.83 911.932 295.68 911.632 295.38C911.332 295.06 911.182 294.69 911.182 294.27ZM923.074 312.36C921.334 312.36 919.884 311.77 918.724 310.59C917.584 309.39 917.014 307.7 917.014 305.52C917.014 303.34 917.624 301.56 918.844 300.18C920.084 298.78 921.654 298.08 923.554 298.08C924.614 298.08 925.804 298.34 927.124 298.86L926.824 300.84C925.064 299.92 923.554 299.46 922.294 299.46C921.254 299.98 920.504 300.82 920.044 301.98C919.584 303.14 919.354 304.28 919.354 305.4C919.354 306.92 919.794 308.19 920.674 309.21C921.574 310.21 922.644 310.71 923.884 310.71C925.124 310.71 926.264 310.44 927.304 309.9V310.95C925.864 311.89 924.454 312.36 923.074 312.36ZM936.972 308.82V305.73C935.532 305.83 934.352 306.15 933.432 306.69C932.512 307.23 932.052 307.81 932.052 308.43C932.052 309.05 932.212 309.59 932.532 310.05C932.852 310.49 933.262 310.8 933.762 310.98C934.422 310.86 935.122 310.53 935.862 309.99C936.602 309.45 936.972 309.06 936.972 308.82ZM939.432 308.01C939.432 309.43 939.952 310.51 940.992 311.25L939.432 312.39L937.002 310.2C935.422 311.64 933.962 312.36 932.622 312.36C931.742 312.36 930.982 312.08 930.342 311.52C929.722 310.96 929.412 310.26 929.412 309.42C929.412 308.56 929.662 307.85 930.162 307.29C930.682 306.73 931.362 306.3 932.202 306C933.642 305.46 935.232 305.12 936.972 304.98V302.16C936.972 300.5 936.012 299.67 934.092 299.67C932.992 299.67 931.692 299.91 930.192 300.39L929.922 299.64C930.322 299.32 931.012 298.98 931.992 298.62C932.992 298.26 933.942 298.08 934.842 298.08C935.742 298.08 936.492 298.2 937.092 298.44C937.712 298.68 938.162 298.95 938.442 299.25C938.742 299.55 938.972 299.96 939.132 300.48C939.292 301 939.382 301.41 939.402 301.71C939.422 302.01 939.432 302.41 939.432 302.91V308.01ZM947.002 309.36C947.002 309.96 947.122 310.41 947.362 310.71C947.602 311.01 948.002 311.16 948.562 311.16C949.122 311.16 949.792 311.01 950.572 310.71V311.55C949.412 312.09 948.372 312.36 947.452 312.36C946.532 312.36 945.802 312.11 945.262 311.61C944.742 311.09 944.482 310.29 944.482 309.21V299.52L942.052 299.04V298.44H944.482V297.36L947.002 295.53V298.44H950.572V299.52H947.002V309.36ZM953.875 312V298.44H956.365V312H953.875ZM953.575 294.27C953.575 293.83 953.715 293.46 953.995 293.16C954.295 292.86 954.655 292.71 955.075 292.71C955.515 292.71 955.885 292.86 956.185 293.16C956.505 293.46 956.665 293.82 956.665 294.24C956.665 294.66 956.505 295.03 956.185 295.35C955.885 295.67 955.525 295.83 955.105 295.83C954.685 295.83 954.325 295.68 954.025 295.38C953.725 295.06 953.575 294.69 953.575 294.27ZM966.667 298.08C968.427 298.08 969.877 298.68 971.017 299.88C972.177 301.08 972.757 302.73 972.757 304.83C972.757 306.17 972.527 307.35 972.067 308.37C971.607 309.39 971.007 310.18 970.267 310.74C968.847 311.82 967.257 312.36 965.497 312.36C963.757 312.36 962.307 311.76 961.147 310.56C960.007 309.36 959.437 307.71 959.437 305.61C959.437 304.27 959.657 303.09 960.097 302.07C960.557 301.05 961.157 300.26 961.897 299.7C963.317 298.62 964.907 298.08 966.667 298.08ZM966.067 311.34C966.947 311.34 967.697 311 968.317 310.32C969.437 309.12 969.997 307.53 969.997 305.55C969.997 303.55 969.657 302 968.977 300.9C968.297 299.78 967.187 299.22 965.647 299.22C964.507 299.66 963.637 300.44 963.037 301.56C962.457 302.66 962.167 304 962.167 305.58C962.167 307.14 962.487 308.49 963.127 309.63C963.767 310.77 964.747 311.34 966.067 311.34ZM978.487 300.36C979.327 299.56 980.057 298.98 980.677 298.62C981.317 298.26 982.067 298.08 982.927 298.08C983.787 298.08 984.577 298.42 985.297 299.1C986.037 299.78 986.407 300.95 986.407 302.61V312H983.857V302.91C983.857 301.93 983.677 301.2 983.317 300.72C982.977 300.22 982.377 299.97 981.517 299.97C980.677 299.97 979.697 300.53 978.577 301.65V312H976.027V302.58C976.027 301.22 975.517 300.13 974.497 299.31L976.027 298.17L978.487 300.36ZM1008.85 307.98C1008.85 309.36 1009.36 310.46 1010.38 311.28L1008.85 312.39L1006.39 310.2C1005.59 310.96 1004.87 311.51 1004.23 311.85C1003.59 312.19 1002.93 312.36 1002.25 312.36C1001.57 312.36 1000.97 312.26 1000.45 312.06C999.927 311.86 999.377 311.53 998.797 311.07C998.237 310.59 997.777 309.85 997.417 308.85C997.077 307.83 996.907 306.52 996.907 304.92C996.907 303.32 997.377 301.79 998.317 300.33C999.277 298.85 1000.59 298.11 1002.25 298.11C1003.49 298.11 1004.84 298.57 1006.3 299.49V291.51H1008.85V307.98ZM1006.3 308.97V300.6C1005.24 299.9 1004.27 299.55 1003.39 299.55C1002.23 299.55 1001.3 300.1 1000.6 301.2C999.897 302.28 999.547 303.64 999.547 305.28C999.547 306.92 999.797 308.24 1000.3 309.24C1000.82 310.22 1001.46 310.81 1002.22 311.01C1002.92 310.95 1003.6 310.78 1004.26 310.5C1004.94 310.22 1005.45 309.94 1005.79 309.66C1006.13 309.36 1006.3 309.13 1006.3 308.97ZM1014.28 304.62C1014.28 306.78 1014.76 308.34 1015.72 309.3C1016.7 310.24 1017.88 310.71 1019.26 310.71C1020.66 310.71 1021.95 310.44 1023.13 309.9V310.95C1021.49 311.89 1019.92 312.36 1018.42 312.36C1016.48 312.36 1014.91 311.77 1013.71 310.59C1012.51 309.41 1011.91 307.7 1011.91 305.46C1011.91 303.22 1012.57 301.43 1013.89 300.09C1015.23 298.75 1016.84 298.08 1018.72 298.08C1020.18 298.08 1021.4 298.66 1022.38 299.82C1023.36 300.96 1023.85 302.56 1023.85 304.62H1014.28ZM1017.19 299.49C1016.49 299.83 1015.89 300.38 1015.39 301.14C1014.89 301.88 1014.56 302.74 1014.4 303.72H1021.42C1021.36 302.88 1021.16 302.16 1020.82 301.56C1020.5 300.96 1020.11 300.52 1019.65 300.24C1018.83 299.74 1018.01 299.49 1017.19 299.49ZM1030.44 309.36C1030.44 309.96 1030.56 310.41 1030.8 310.71C1031.04 311.01 1031.44 311.16 1032 311.16C1032.56 311.16 1033.23 311.01 1034.01 310.71V311.55C1032.85 312.09 1031.81 312.36 1030.89 312.36C1029.97 312.36 1029.24 312.11 1028.7 311.61C1028.18 311.09 1027.92 310.29 1027.92 309.21V299.52L1025.49 299.04V298.44H1027.92V297.36L1030.44 295.53V298.44H1034.01V299.52H1030.44V309.36ZM1043.61 308.82V305.73C1042.17 305.83 1040.99 306.15 1040.07 306.69C1039.15 307.23 1038.69 307.81 1038.69 308.43C1038.69 309.05 1038.85 309.59 1039.17 310.05C1039.49 310.49 1039.9 310.8 1040.4 310.98C1041.06 310.86 1041.76 310.53 1042.5 309.99C1043.24 309.45 1043.61 309.06 1043.61 308.82ZM1046.07 308.01C1046.07 309.43 1046.59 310.51 1047.63 311.25L1046.07 312.39L1043.64 310.2C1042.06 311.64 1040.6 312.36 1039.26 312.36C1038.38 312.36 1037.62 312.08 1036.98 311.52C1036.36 310.96 1036.05 310.26 1036.05 309.42C1036.05 308.56 1036.3 307.85 1036.8 307.29C1037.32 306.73 1038 306.3 1038.84 306C1040.28 305.46 1041.87 305.12 1043.61 304.98V302.16C1043.61 300.5 1042.65 299.67 1040.73 299.67C1039.63 299.67 1038.33 299.91 1036.83 300.39L1036.56 299.64C1036.96 299.32 1037.65 298.98 1038.63 298.62C1039.63 298.26 1040.58 298.08 1041.48 298.08C1042.38 298.08 1043.13 298.2 1043.73 298.44C1044.35 298.68 1044.8 298.95 1045.08 299.25C1045.38 299.55 1045.61 299.96 1045.77 300.48C1045.93 301 1046.02 301.41 1046.04 301.71C1046.06 302.01 1046.07 302.41 1046.07 302.91V308.01ZM1053.16 291.51V312H1050.64V291.51H1053.16ZM1057.67 312V298.44H1060.16V312H1057.67ZM1057.37 294.27C1057.37 293.83 1057.51 293.46 1057.79 293.16C1058.09 292.86 1058.45 292.71 1058.87 292.71C1059.31 292.71 1059.68 292.86 1059.98 293.16C1060.3 293.46 1060.46 293.82 1060.46 294.24C1060.46 294.66 1060.3 295.03 1059.98 295.35C1059.68 295.67 1059.32 295.83 1058.9 295.83C1058.48 295.83 1058.12 295.68 1057.82 295.38C1057.52 295.06 1057.37 294.69 1057.37 294.27ZM1067.29 300.36C1068.13 299.56 1068.86 298.98 1069.48 298.62C1070.12 298.26 1070.87 298.08 1071.73 298.08C1072.59 298.08 1073.38 298.42 1074.1 299.1C1074.84 299.78 1075.21 300.95 1075.21 302.61V312H1072.66V302.91C1072.66 301.93 1072.48 301.2 1072.12 300.72C1071.78 300.22 1071.18 299.97 1070.32 299.97C1069.48 299.97 1068.5 300.53 1067.38 301.65V312H1064.83V302.58C1064.83 301.22 1064.32 300.13 1063.3 299.31L1064.83 298.17L1067.29 300.36ZM1081.39 309.3C1081.39 309.68 1081.67 309.94 1082.23 310.08C1082.81 310.22 1083.91 310.29 1085.53 310.29C1087.15 310.29 1088.45 310.47 1089.43 310.83C1090.41 311.19 1090.9 311.87 1090.9 312.87C1090.9 314.35 1090.17 315.68 1088.71 316.86C1087.27 318.06 1085.5 318.66 1083.4 318.66C1081.88 318.66 1080.63 318.37 1079.65 317.79C1078.69 317.23 1078.21 316.42 1078.21 315.36C1078.21 313.86 1079.03 312.75 1080.67 312.03C1079.75 311.69 1079.29 311.06 1079.29 310.14C1079.29 309.2 1080.01 308.18 1081.45 307.08C1079.95 306.3 1079.2 305.03 1079.2 303.27C1079.2 301.49 1079.75 300.18 1080.85 299.34C1081.97 298.5 1083.22 298.08 1084.6 298.08C1085.58 298.08 1086.52 298.35 1087.42 298.89L1090.06 298.14L1090.66 299.43L1088.8 300.36C1089.18 301.02 1089.37 301.79 1089.37 302.67C1089.37 303.55 1089.19 304.33 1088.83 305.01C1088.49 305.67 1088.04 306.18 1087.48 306.54C1086.36 307.26 1085.15 307.62 1083.85 307.62C1083.65 307.62 1083.37 307.6 1083.01 307.56C1082.67 307.66 1082.31 307.88 1081.93 308.22C1081.57 308.56 1081.39 308.92 1081.39 309.3ZM1087 302.94C1087 301.9 1086.72 301 1086.16 300.24C1085.62 299.46 1084.94 299.07 1084.12 299.07C1083.32 299.07 1082.68 299.42 1082.2 300.12C1081.72 300.82 1081.48 301.73 1081.48 302.85C1081.48 303.95 1081.75 304.87 1082.29 305.61C1082.83 306.33 1083.48 306.69 1084.24 306.69C1086.08 306.69 1087 305.44 1087 302.94ZM1083.88 317.28C1085.54 317.28 1086.95 316.82 1088.11 315.9C1089.27 314.98 1089.85 314.06 1089.85 313.14C1088.83 312.72 1087.4 312.51 1085.56 312.51C1083.74 312.51 1082.48 312.45 1081.78 312.33C1080.9 313.07 1080.46 313.86 1080.46 314.7C1080.46 316.42 1081.6 317.28 1083.88 317.28ZM906.162 344.36C906.162 344.96 906.282 345.41 906.522 345.71C906.762 346.01 907.162 346.16 907.722 346.16C908.282 346.16 908.952 346.01 909.732 345.71V346.55C908.572 347.09 907.532 347.36 906.612 347.36C905.692 347.36 904.962 347.11 904.422 346.61C903.902 346.09 903.642 345.29 903.642 344.21V334.52L901.212 334.04V333.44H903.642V332.36L906.162 330.53V333.44H909.732V334.52H906.162V344.36ZM920.205 333.14C921.125 333.14 921.945 333.48 922.665 334.16C923.385 334.84 923.745 336.01 923.745 337.67V347H921.225V337.97C921.225 336.99 921.045 336.26 920.685 335.78C920.345 335.28 919.675 335.03 918.675 335.03C917.695 335.03 916.665 335.56 915.585 336.62V347H913.065V326.51H915.495V335.36C917.075 333.88 918.645 333.14 920.205 333.14ZM929.023 339.62C929.023 341.78 929.503 343.34 930.463 344.3C931.443 345.24 932.623 345.71 934.003 345.71C935.403 345.71 936.693 345.44 937.873 344.9V345.95C936.233 346.89 934.663 347.36 933.163 347.36C931.223 347.36 929.653 346.77 928.453 345.59C927.253 344.41 926.653 342.7 926.653 340.46C926.653 338.22 927.313 336.43 928.633 335.09C929.973 333.75 931.583 333.08 933.463 333.08C934.923 333.08 936.143 333.66 937.123 334.82C938.103 335.96 938.593 337.56 938.593 339.62H929.023ZM931.933 334.49C931.233 334.83 930.633 335.38 930.133 336.14C929.633 336.88 929.303 337.74 929.143 338.72H936.163C936.103 337.88 935.903 337.16 935.563 336.56C935.243 335.96 934.853 335.52 934.393 335.24C933.573 334.74 932.753 334.49 931.933 334.49ZM950.586 339.62C950.586 341.78 951.066 343.34 952.026 344.3C953.006 345.24 954.186 345.71 955.566 345.71C956.966 345.71 958.256 345.44 959.436 344.9V345.95C957.796 346.89 956.226 347.36 954.726 347.36C952.786 347.36 951.216 346.77 950.016 345.59C948.816 344.41 948.216 342.7 948.216 340.46C948.216 338.22 948.876 336.43 950.196 335.09C951.536 333.75 953.146 333.08 955.026 333.08C956.486 333.08 957.706 333.66 958.686 334.82C959.666 335.96 960.156 337.56 960.156 339.62H950.586ZM953.496 334.49C952.796 334.83 952.196 335.38 951.696 336.14C951.196 336.88 950.866 337.74 950.706 338.72H957.726C957.666 337.88 957.466 337.16 957.126 336.56C956.806 335.96 956.416 335.52 955.956 335.24C955.136 334.74 954.316 334.49 953.496 334.49ZM968.128 347.39H967.678L961.798 333.44H964.438L968.578 343.94L972.508 333.44H973.648L968.128 347.39ZM977.099 339.62C977.099 341.78 977.579 343.34 978.539 344.3C979.519 345.24 980.699 345.71 982.079 345.71C983.479 345.71 984.769 345.44 985.949 344.9V345.95C984.309 346.89 982.739 347.36 981.239 347.36C979.299 347.36 977.729 346.77 976.529 345.59C975.329 344.41 974.729 342.7 974.729 340.46C974.729 338.22 975.389 336.43 976.709 335.09C978.049 333.75 979.659 333.08 981.539 333.08C982.999 333.08 984.219 333.66 985.199 334.82C986.179 335.96 986.669 337.56 986.669 339.62H977.099ZM980.009 334.49C979.309 334.83 978.709 335.38 978.209 336.14C977.709 336.88 977.379 337.74 977.219 338.72H984.239C984.179 337.88 983.979 337.16 983.639 336.56C983.319 335.96 982.929 335.52 982.469 335.24C981.649 334.74 980.829 334.49 980.009 334.49ZM992.872 335.36C993.712 334.56 994.442 333.98 995.062 333.62C995.702 333.26 996.452 333.08 997.312 333.08C998.172 333.08 998.962 333.42 999.682 334.1C1000.42 334.78 1000.79 335.95 1000.79 337.61V347H998.242V337.91C998.242 336.93 998.062 336.2 997.702 335.72C997.362 335.22 996.762 334.97 995.902 334.97C995.062 334.97 994.082 335.53 992.962 336.65V347H990.412V337.58C990.412 336.22 989.902 335.13 988.882 334.31L990.412 333.17L992.872 335.36ZM1008.26 344.36C1008.26 344.96 1008.38 345.41 1008.62 345.71C1008.86 346.01 1009.26 346.16 1009.82 346.16C1010.38 346.16 1011.05 346.01 1011.83 345.71V346.55C1010.67 347.09 1009.63 347.36 1008.71 347.36C1007.79 347.36 1007.06 347.11 1006.52 346.61C1006 346.09 1005.74 345.29 1005.74 344.21V334.52L1003.31 334.04V333.44H1005.74V332.36L1008.26 330.53V333.44H1011.83V334.52H1008.26V344.36ZM1028.93 343.82V340.73C1027.49 340.83 1026.31 341.15 1025.39 341.69C1024.47 342.23 1024.01 342.81 1024.01 343.43C1024.01 344.05 1024.17 344.59 1024.49 345.05C1024.81 345.49 1025.22 345.8 1025.72 345.98C1026.38 345.86 1027.08 345.53 1027.82 344.99C1028.56 344.45 1028.93 344.06 1028.93 343.82ZM1031.39 343.01C1031.39 344.43 1031.91 345.51 1032.95 346.25L1031.39 347.39L1028.96 345.2C1027.38 346.64 1025.92 347.36 1024.58 347.36C1023.7 347.36 1022.94 347.08 1022.3 346.52C1021.68 345.96 1021.37 345.26 1021.37 344.42C1021.37 343.56 1021.62 342.85 1022.12 342.29C1022.64 341.73 1023.32 341.3 1024.16 341C1025.6 340.46 1027.19 340.12 1028.93 339.98V337.16C1028.93 335.5 1027.97 334.67 1026.05 334.67C1024.95 334.67 1023.65 334.91 1022.15 335.39L1021.88 334.64C1022.28 334.32 1022.97 333.98 1023.95 333.62C1024.95 333.26 1025.9 333.08 1026.8 333.08C1027.7 333.08 1028.45 333.2 1029.05 333.44C1029.67 333.68 1030.12 333.95 1030.4 334.25C1030.7 334.55 1030.93 334.96 1031.09 335.48C1031.25 336 1031.34 336.41 1031.36 336.71C1031.38 337.01 1031.39 337.41 1031.39 337.91V343.01ZM1038.96 344.36C1038.96 344.96 1039.08 345.41 1039.32 345.71C1039.56 346.01 1039.96 346.16 1040.52 346.16C1041.08 346.16 1041.75 346.01 1042.53 345.71V346.55C1041.37 347.09 1040.33 347.36 1039.41 347.36C1038.49 347.36 1037.76 347.11 1037.22 346.61C1036.7 346.09 1036.44 345.29 1036.44 344.21V334.52L1034.01 334.04V333.44H1036.44V332.36L1038.96 330.53V333.44H1042.53V334.52H1038.96V344.36ZM884.014 379.36C884.014 379.96 884.134 380.41 884.374 380.71C884.614 381.01 885.014 381.16 885.574 381.16C886.134 381.16 886.804 381.01 887.584 380.71V381.55C886.424 382.09 885.384 382.36 884.464 382.36C883.544 382.36 882.814 382.11 882.274 381.61C881.754 381.09 881.494 380.29 881.494 379.21V369.52L879.064 369.04V368.44H881.494V367.36L884.014 365.53V368.44H887.584V369.52H884.014V379.36ZM898.057 368.14C898.977 368.14 899.797 368.48 900.517 369.16C901.237 369.84 901.597 371.01 901.597 372.67V382H899.077V372.97C899.077 371.99 898.897 371.26 898.537 370.78C898.197 370.28 897.527 370.03 896.527 370.03C895.547 370.03 894.517 370.56 893.437 371.62V382H890.917V361.51H893.347V370.36C894.927 368.88 896.497 368.14 898.057 368.14ZM906.875 374.62C906.875 376.78 907.355 378.34 908.315 379.3C909.295 380.24 910.475 380.71 911.855 380.71C913.255 380.71 914.545 380.44 915.725 379.9V380.95C914.085 381.89 912.515 382.36 911.015 382.36C909.075 382.36 907.505 381.77 906.305 380.59C905.105 379.41 904.505 377.7 904.505 375.46C904.505 373.22 905.165 371.43 906.485 370.09C907.825 368.75 909.435 368.08 911.315 368.08C912.775 368.08 913.995 368.66 914.975 369.82C915.955 370.96 916.445 372.56 916.445 374.62H906.875ZM909.785 369.49C909.085 369.83 908.485 370.38 907.985 371.14C907.485 371.88 907.155 372.74 906.995 373.72H914.015C913.955 372.88 913.755 372.16 913.415 371.56C913.095 370.96 912.705 370.52 912.245 370.24C911.425 369.74 910.605 369.49 909.785 369.49ZM928.347 368.44L932.337 379.03L935.037 371.65L933.687 368.44H936.447L940.437 379.03L944.337 368.44H945.507L940.017 382.39H939.537L935.577 373.03L931.887 382.39H931.437L925.587 368.44H928.347ZM948.945 374.62C948.945 376.78 949.425 378.34 950.385 379.3C951.365 380.24 952.545 380.71 953.925 380.71C955.325 380.71 956.615 380.44 957.795 379.9V380.95C956.155 381.89 954.585 382.36 953.085 382.36C951.145 382.36 949.575 381.77 948.375 380.59C947.175 379.41 946.575 377.7 946.575 375.46C946.575 373.22 947.235 371.43 948.555 370.09C949.895 368.75 951.505 368.08 953.385 368.08C954.845 368.08 956.065 368.66 957.045 369.82C958.025 370.96 958.515 372.56 958.515 374.62H948.945ZM951.855 369.49C951.155 369.83 950.555 370.38 950.055 371.14C949.555 371.88 949.225 372.74 949.065 373.72H956.085C956.025 372.88 955.825 372.16 955.485 371.56C955.165 370.96 954.775 370.52 954.315 370.24C953.495 369.74 952.675 369.49 951.855 369.49ZM964.447 370.33C965.727 368.87 967.127 368.14 968.647 368.14C970.187 368.14 971.437 368.75 972.397 369.97C973.377 371.19 973.867 372.9 973.867 375.1C973.867 377.28 973.137 379.04 971.677 380.38C970.237 381.72 968.477 382.39 966.397 382.39C964.837 382.39 963.347 382 961.927 381.22V361.51H964.447V370.33ZM964.447 371.74V380.32C965.467 380.86 966.527 381.13 967.627 381.13C968.727 381.13 969.607 380.59 970.267 379.51C970.947 378.43 971.287 377.09 971.287 375.49C971.287 373.89 970.957 372.61 970.297 371.65C969.637 370.69 968.807 370.05 967.807 369.73C967.267 369.77 966.717 369.94 966.157 370.24C965.617 370.54 965.197 370.84 964.897 371.14C964.597 371.42 964.447 371.62 964.447 371.74ZM984.277 368.14C985.197 368.14 986.017 368.48 986.737 369.16C987.457 369.84 987.817 371.01 987.817 372.67V382H985.297V372.97C985.297 371.99 985.117 371.26 984.757 370.78C984.417 370.28 983.747 370.03 982.747 370.03C981.767 370.03 980.737 370.56 979.657 371.62V382H977.137V361.51H979.567V370.36C981.147 368.88 982.717 368.14 984.277 368.14ZM997.985 368.08C999.745 368.08 1001.2 368.68 1002.34 369.88C1003.5 371.08 1004.08 372.73 1004.08 374.83C1004.08 376.17 1003.85 377.35 1003.39 378.37C1002.93 379.39 1002.33 380.18 1001.59 380.74C1000.17 381.82 998.575 382.36 996.815 382.36C995.075 382.36 993.625 381.76 992.465 380.56C991.325 379.36 990.755 377.71 990.755 375.61C990.755 374.27 990.975 373.09 991.415 372.07C991.875 371.05 992.475 370.26 993.215 369.7C994.635 368.62 996.225 368.08 997.985 368.08ZM997.385 381.34C998.265 381.34 999.015 381 999.635 380.32C1000.76 379.12 1001.32 377.53 1001.32 375.55C1001.32 373.55 1000.98 372 1000.3 370.9C999.615 369.78 998.505 369.22 996.965 369.22C995.825 369.66 994.955 370.44 994.355 371.56C993.775 372.66 993.485 374 993.485 375.58C993.485 377.14 993.805 378.49 994.445 379.63C995.085 380.77 996.065 381.34 997.385 381.34ZM1012.99 368.08C1014.75 368.08 1016.2 368.68 1017.34 369.88C1018.5 371.08 1019.08 372.73 1019.08 374.83C1019.08 376.17 1018.85 377.35 1018.39 378.37C1017.93 379.39 1017.33 380.18 1016.59 380.74C1015.17 381.82 1013.58 382.36 1011.82 382.36C1010.08 382.36 1008.63 381.76 1007.47 380.56C1006.33 379.36 1005.76 377.71 1005.76 375.61C1005.76 374.27 1005.98 373.09 1006.42 372.07C1006.88 371.05 1007.48 370.26 1008.22 369.7C1009.64 368.62 1011.23 368.08 1012.99 368.08ZM1012.39 381.34C1013.27 381.34 1014.02 381 1014.64 380.32C1015.76 379.12 1016.32 377.53 1016.32 375.55C1016.32 373.55 1015.98 372 1015.3 370.9C1014.62 369.78 1013.51 369.22 1011.97 369.22C1010.83 369.66 1009.96 370.44 1009.36 371.56C1008.78 372.66 1008.49 374 1008.49 375.58C1008.49 377.14 1008.81 378.49 1009.45 379.63C1010.09 380.77 1011.07 381.34 1012.39 381.34ZM1024.72 382H1022.2V361.51H1024.72V374.2L1031.65 368.44H1033.63L1026.58 373.78L1034.08 382L1031.08 382.39L1024.72 374.47V382ZM1054.15 377.98C1054.15 379.36 1054.67 380.45 1055.71 381.25L1054.15 382.36L1051.72 380.17C1050.9 380.95 1050.17 381.51 1049.53 381.85C1048.89 382.19 1048.13 382.36 1047.25 382.36C1046.39 382.36 1045.59 382.03 1044.85 381.37C1044.13 380.69 1043.77 379.53 1043.77 377.89V368.44H1046.32V378.04C1046.32 379 1046.49 379.73 1046.83 380.23C1047.19 380.71 1047.8 380.95 1048.66 380.95C1049.54 380.95 1050.52 380.31 1051.6 379.03V368.44H1054.15V377.98ZM1061.09 382H1058.57V368.44H1060.31L1061 370.96C1061.4 370.26 1062.03 369.6 1062.89 368.98C1063.77 368.36 1064.67 367.98 1065.59 367.84L1065.89 369.91C1065.15 369.91 1064.31 370.14 1063.37 370.6C1062.45 371.06 1061.69 371.57 1061.09 372.13V382ZM1070.98 361.51V382H1068.46V361.51H1070.98Z" fill="#060606"/>
<path d="M278 92C293.685 105.917 313.87 115.722 335.435 113.648C341.75 113.04 348.892 110.378 354.633 107.539C355.846 106.939 356.944 106.14 358.057 105.371C359.073 104.669 357.189 113.17 357.022 114.17C355.245 124.86 356.898 113.312 358.101 109.339C359.035 106.256 361.007 103.165 361.442 99.9491C361.792 97.3596 356.643 97.9013 354.877 97.7322C353.06 97.5582 341.321 94.6533 342.892 98.6855C345.71 105.92 351.228 110.763 356.131 116.431" stroke="black" stroke-width="2" stroke-linecap="round"/>
<path d="M703 115.669C730.384 104.489 760.587 98.0419 789.965 94.8528C795.956 94.2024 802.051 93.7586 807.947 92.4522C808.831 92.2562 809.932 92.077 810.523 91.3374" stroke="black" stroke-width="2" stroke-linecap="round"/>
<path d="M807.561 91.1794C805.517 90.039 800.335 88.3565 799.664 85.6429C799.642 85.5511 799.575 84.9434 799.603 85.0043C800.439 86.8288 799.866 90.946 799.686 92.9481C799.639 93.4754 798.662 99.0068 799.127 98.7742C803.501 96.5876 807.627 92.4582 811.708 89.6784" stroke="black" stroke-width="2" stroke-linecap="round"/>
</svg>
